%TF.GenerationSoftware,Altium Limited,Altium Designer,22.4.2 (48)*%
G04 Layer_Color=8388736*
%FSLAX26Y26*%
%MOIN*%
%TF.SameCoordinates,DC04713F-A1B7-43D7-85F6-64DFF616D11F*%
%TF.FilePolarity,Negative*%
%TF.FileFunction,Soldermask,Top*%
%TF.Part,Single*%
G01*
G75*
%TA.AperFunction,ComponentPad*%
%ADD21C,0.055000*%
%TA.AperFunction,SMDPad,CuDef*%
%ADD29R,0.059181X0.043433*%
%ADD30R,0.035559X0.082803*%
%ADD31R,0.065087X0.047370*%
%ADD32R,0.065874X0.048157*%
%TA.AperFunction,ViaPad*%
%ADD33C,0.208000*%
%TA.AperFunction,ComponentPad*%
G04:AMPARAMS|DCode=34|XSize=63.118mil|YSize=63.118mil|CornerRadius=17.779mil|HoleSize=0mil|Usage=FLASHONLY|Rotation=270.000|XOffset=0mil|YOffset=0mil|HoleType=Round|Shape=RoundedRectangle|*
%AMROUNDEDRECTD34*
21,1,0.063118,0.027559,0,0,270.0*
21,1,0.027559,0.063118,0,0,270.0*
1,1,0.035559,-0.013780,-0.013780*
1,1,0.035559,-0.013780,0.013780*
1,1,0.035559,0.013780,0.013780*
1,1,0.035559,0.013780,-0.013780*
%
%ADD34ROUNDEDRECTD34*%
%ADD35C,0.063118*%
G04:AMPARAMS|DCode=36|XSize=161.543mil|YSize=114.299mil|CornerRadius=30.575mil|HoleSize=0mil|Usage=FLASHONLY|Rotation=90.000|XOffset=0mil|YOffset=0mil|HoleType=Round|Shape=RoundedRectangle|*
%AMROUNDEDRECTD36*
21,1,0.161543,0.053150,0,0,90.0*
21,1,0.100394,0.114299,0,0,90.0*
1,1,0.061150,0.026575,0.050197*
1,1,0.061150,0.026575,-0.050197*
1,1,0.061150,-0.026575,-0.050197*
1,1,0.061150,-0.026575,0.050197*
%
%ADD36ROUNDEDRECTD36*%
%ADD37C,0.067055*%
G04:AMPARAMS|DCode=38|XSize=67.055mil|YSize=67.055mil|CornerRadius=18.764mil|HoleSize=0mil|Usage=FLASHONLY|Rotation=0.000|XOffset=0mil|YOffset=0mil|HoleType=Round|Shape=RoundedRectangle|*
%AMROUNDEDRECTD38*
21,1,0.067055,0.029527,0,0,0.0*
21,1,0.029527,0.067055,0,0,0.0*
1,1,0.037528,0.014764,-0.014764*
1,1,0.037528,-0.014764,-0.014764*
1,1,0.037528,-0.014764,0.014764*
1,1,0.037528,0.014764,0.014764*
%
%ADD38ROUNDEDRECTD38*%
%TA.AperFunction,ViaPad*%
%ADD39C,0.053000*%
D21*
X3700000Y4800000D02*
D03*
X3800000D02*
D03*
X3900000D02*
D03*
X4000000D02*
D03*
X4100000D02*
D03*
Y4700000D02*
D03*
X4000000D02*
D03*
X3900000D02*
D03*
X3800000D02*
D03*
X3700000D02*
D03*
D29*
X2066000Y3752598D02*
D03*
Y3827402D02*
D03*
D30*
X1870000Y4007976D02*
D03*
X1820000D02*
D03*
X1770000D02*
D03*
X1720000D02*
D03*
X1670000D02*
D03*
X1620000D02*
D03*
X1570000D02*
D03*
X1520000D02*
D03*
X1470000D02*
D03*
X1420000D02*
D03*
Y3630024D02*
D03*
X1470000D02*
D03*
X1520000D02*
D03*
X1570000D02*
D03*
X1620000D02*
D03*
X1670000D02*
D03*
X1720000D02*
D03*
X1770000D02*
D03*
X1820000D02*
D03*
X1870000D02*
D03*
D31*
X3460000Y3708598D02*
D03*
Y3783402D02*
D03*
X3160000Y3708598D02*
D03*
Y3783402D02*
D03*
X2860000Y3708598D02*
D03*
Y3783402D02*
D03*
D32*
X3457000Y3956504D02*
D03*
Y4019496D02*
D03*
X3157000Y3956504D02*
D03*
Y4019496D02*
D03*
X2857000Y3956504D02*
D03*
Y4019496D02*
D03*
D33*
X1150000Y3650000D02*
D03*
X4450000D02*
D03*
Y4850000D02*
D03*
X1150000D02*
D03*
D34*
X2377000Y3676574D02*
D03*
D35*
Y3873426D02*
D03*
D36*
X4108070Y4000000D02*
D03*
X3741930D02*
D03*
D37*
X3925000Y4295276D02*
D03*
X3826574D02*
D03*
X4023426D02*
D03*
X3826574Y3724410D02*
D03*
X4023426D02*
D03*
X3146000Y4230448D02*
D03*
X3246000D02*
D03*
X3346000D02*
D03*
X3446000D02*
D03*
Y4821000D02*
D03*
X3346000D02*
D03*
X3246000D02*
D03*
X3146000D02*
D03*
X3046000D02*
D03*
X2630000Y4230448D02*
D03*
X2730000D02*
D03*
X2830000D02*
D03*
X2930000D02*
D03*
Y4821000D02*
D03*
X2830000D02*
D03*
X2730000D02*
D03*
X2630000D02*
D03*
X2530000D02*
D03*
X2114000Y4230448D02*
D03*
X2214000D02*
D03*
X2314000D02*
D03*
X2414000D02*
D03*
Y4821000D02*
D03*
X2314000D02*
D03*
X2214000D02*
D03*
X2114000D02*
D03*
X2014000D02*
D03*
X1598426Y4229724D02*
D03*
X1698426D02*
D03*
X1798426D02*
D03*
X1898426D02*
D03*
Y4820276D02*
D03*
X1798426D02*
D03*
X1698426D02*
D03*
X1598426D02*
D03*
X1498426D02*
D03*
D38*
X3046000Y4230448D02*
D03*
X2530000D02*
D03*
X2014000D02*
D03*
X1498426Y4229724D02*
D03*
D39*
X1935000Y3734000D02*
D03*
X2972000Y3956504D02*
D03*
X1434000Y4093000D02*
D03*
%TF.MD5,9b6eb5a52c61a324b022e7215971ab63*%
M02*
