%TF.GenerationSoftware,Altium Limited,Altium Designer,22.4.2 (48)*%
G04 Layer_Color=8421504*
%FSLAX26Y26*%
%MOIN*%
%TF.SameCoordinates,DC04713F-A1B7-43D7-85F6-64DFF616D11F*%
%TF.FilePolarity,Positive*%
%TF.FileFunction,Paste,Top*%
%TF.Part,Single*%
G01*
G75*
%TA.AperFunction,SMDPad,CuDef*%
%ADD10R,0.051181X0.035433*%
%ADD11R,0.027559X0.074803*%
%ADD12R,0.057087X0.039370*%
%ADD13R,0.057874X0.040157*%
D10*
X2066000Y3752598D02*
D03*
Y3827402D02*
D03*
D11*
X1870000Y4007976D02*
D03*
X1820000D02*
D03*
X1770000D02*
D03*
X1720000D02*
D03*
X1670000D02*
D03*
X1620000D02*
D03*
X1570000D02*
D03*
X1520000D02*
D03*
X1470000D02*
D03*
X1420000D02*
D03*
Y3630024D02*
D03*
X1470000D02*
D03*
X1520000D02*
D03*
X1570000D02*
D03*
X1620000D02*
D03*
X1670000D02*
D03*
X1720000D02*
D03*
X1770000D02*
D03*
X1820000D02*
D03*
X1870000D02*
D03*
D12*
X3460000Y3708598D02*
D03*
Y3783402D02*
D03*
X3160000Y3708598D02*
D03*
Y3783402D02*
D03*
X2860000Y3708598D02*
D03*
Y3783402D02*
D03*
D13*
X3457000Y3956504D02*
D03*
Y4019496D02*
D03*
X3157000Y3956504D02*
D03*
Y4019496D02*
D03*
X2857000Y3956504D02*
D03*
Y4019496D02*
D03*
%TF.MD5,3e4b2d7c87ca6da6060ada18865e518c*%
M02*
