G04*
G04 #@! TF.GenerationSoftware,Altium Limited,Altium Designer,22.4.2 (48)*
G04*
G04 Layer_Color=255*
%FSLAX25Y25*%
%MOIN*%
G70*
G04*
G04 #@! TF.SameCoordinates,BCBF65FA-95A4-4157-AECB-54A889C136F6*
G04*
G04*
G04 #@! TF.FilePolarity,Positive*
G04*
G01*
G75*
%ADD30C,0.05500*%
%ADD33C,0.20000*%
G04:AMPARAMS|DCode=34|XSize=55.12mil|YSize=55.12mil|CornerRadius=13.78mil|HoleSize=0mil|Usage=FLASHONLY|Rotation=270.000|XOffset=0mil|YOffset=0mil|HoleType=Round|Shape=RoundedRectangle|*
%AMROUNDEDRECTD34*
21,1,0.05512,0.02756,0,0,270.0*
21,1,0.02756,0.05512,0,0,270.0*
1,1,0.02756,-0.01378,-0.01378*
1,1,0.02756,-0.01378,0.01378*
1,1,0.02756,0.01378,0.01378*
1,1,0.02756,0.01378,-0.01378*
%
%ADD34ROUNDEDRECTD34*%
%ADD35C,0.05512*%
G04:AMPARAMS|DCode=36|XSize=153.54mil|YSize=106.3mil|CornerRadius=26.57mil|HoleSize=0mil|Usage=FLASHONLY|Rotation=90.000|XOffset=0mil|YOffset=0mil|HoleType=Round|Shape=RoundedRectangle|*
%AMROUNDEDRECTD36*
21,1,0.15354,0.05315,0,0,90.0*
21,1,0.10039,0.10630,0,0,90.0*
1,1,0.05315,0.02657,0.05020*
1,1,0.05315,0.02657,-0.05020*
1,1,0.05315,-0.02657,-0.05020*
1,1,0.05315,-0.02657,0.05020*
%
%ADD36ROUNDEDRECTD36*%
%ADD37C,0.05906*%
G04:AMPARAMS|DCode=38|XSize=59.06mil|YSize=59.06mil|CornerRadius=14.76mil|HoleSize=0mil|Usage=FLASHONLY|Rotation=0.000|XOffset=0mil|YOffset=0mil|HoleType=Round|Shape=RoundedRectangle|*
%AMROUNDEDRECTD38*
21,1,0.05906,0.02953,0,0,0.0*
21,1,0.02953,0.05906,0,0,0.0*
1,1,0.02953,0.01476,-0.01476*
1,1,0.02953,-0.01476,-0.01476*
1,1,0.02953,-0.01476,0.01476*
1,1,0.02953,0.01476,0.01476*
%
%ADD38ROUNDEDRECTD38*%
D30*
X370000Y480000D02*
D03*
X380000D02*
D03*
X390000D02*
D03*
X400000D02*
D03*
X410000D02*
D03*
Y470000D02*
D03*
X400000D02*
D03*
X390000D02*
D03*
X380000D02*
D03*
X370000D02*
D03*
D33*
X115000Y365000D02*
D03*
X445000D02*
D03*
Y485000D02*
D03*
X115000D02*
D03*
D34*
X237700Y367657D02*
D03*
D35*
Y387343D02*
D03*
D36*
X410807Y400000D02*
D03*
X374193D02*
D03*
D37*
X392500Y429528D02*
D03*
X382657D02*
D03*
X402343D02*
D03*
X382657Y372441D02*
D03*
X402343D02*
D03*
X314600Y423045D02*
D03*
X324600D02*
D03*
X334600D02*
D03*
X344600D02*
D03*
Y482100D02*
D03*
X334600D02*
D03*
X324600D02*
D03*
X314600D02*
D03*
X304600D02*
D03*
X263000Y423045D02*
D03*
X273000D02*
D03*
X283000D02*
D03*
X293000D02*
D03*
Y482100D02*
D03*
X283000D02*
D03*
X273000D02*
D03*
X263000D02*
D03*
X253000D02*
D03*
X211400Y423045D02*
D03*
X221400D02*
D03*
X231400D02*
D03*
X241400D02*
D03*
Y482100D02*
D03*
X231400D02*
D03*
X221400D02*
D03*
X211400D02*
D03*
X201400D02*
D03*
X159843Y422972D02*
D03*
X169843D02*
D03*
X179843D02*
D03*
X189843D02*
D03*
Y482028D02*
D03*
X179843D02*
D03*
X169843D02*
D03*
X159843D02*
D03*
X149843D02*
D03*
D38*
X304600Y423045D02*
D03*
X253000D02*
D03*
X201400D02*
D03*
X149843Y422972D02*
D03*
M02*
