%TF.GenerationSoftware,Altium Limited,Altium Designer,22.4.2 (48)*%
G04 Layer_Color=2752767*
%FSLAX26Y26*%
%MOIN*%
%TF.SameCoordinates,DC04713F-A1B7-43D7-85F6-64DFF616D11F*%
%TF.FilePolarity,Positive*%
%TF.FileFunction,Drawing*%
%TF.Part,Single*%
G01*
G75*
%TA.AperFunction,NonConductor*%
%ADD52C,0.005000*%
%ADD53C,0.006667*%
D52*
X1130000Y3630000D02*
Y3670000D01*
X1170000D01*
Y3630000D01*
X1130000D01*
X4430000D02*
Y3670000D01*
X4470000D01*
Y3630000D01*
X4430000D01*
Y4830000D02*
Y4870000D01*
X4470000D01*
Y4830000D01*
X4430000D01*
X1130000D02*
Y4870000D01*
X1170000D01*
Y4830000D01*
X1130000D01*
X4108070Y3980000D02*
X4088070Y4020000D01*
X4128070D01*
X4108070Y3980000D01*
X3741930D02*
X3721930Y4020000D01*
X3761930D01*
X3741930Y3980000D01*
X3925000Y4275276D02*
X3935000Y4285276D01*
X3945000D01*
X3935000Y4295276D01*
X3945000Y4305276D01*
X3935000D01*
X3925000Y4315276D01*
X3915000Y4305276D01*
X3905000D01*
X3915000Y4295276D01*
X3905000Y4285276D01*
X3915000D01*
X3925000Y4275276D01*
X3826574D02*
X3836574Y4285276D01*
X3846574D01*
X3836574Y4295276D01*
X3846574Y4305276D01*
X3836574D01*
X3826574Y4315276D01*
X3816574Y4305276D01*
X3806574D01*
X3816574Y4295276D01*
X3806574Y4285276D01*
X3816574D01*
X3826574Y4275276D01*
X4023426D02*
X4033426Y4285276D01*
X4043426D01*
X4033426Y4295276D01*
X4043426Y4305276D01*
X4033426D01*
X4023426Y4315276D01*
X4013426Y4305276D01*
X4003426D01*
X4013426Y4295276D01*
X4003426Y4285276D01*
X4013426D01*
X4023426Y4275276D01*
X3826574Y3704410D02*
X3836574Y3714410D01*
X3846574D01*
X3836574Y3724410D01*
X3846574Y3734410D01*
X3836574D01*
X3826574Y3744410D01*
X3816574Y3734410D01*
X3806574D01*
X3816574Y3724410D01*
X3806574Y3714410D01*
X3816574D01*
X3826574Y3704410D01*
X4023426D02*
X4033426Y3714410D01*
X4043426D01*
X4033426Y3724410D01*
X4043426Y3734410D01*
X4033426D01*
X4023426Y3744410D01*
X4013426Y3734410D01*
X4003426D01*
X4013426Y3724410D01*
X4003426Y3714410D01*
X4013426D01*
X4023426Y3704410D01*
X3046000Y4210448D02*
X3056000Y4220448D01*
X3066000D01*
X3056000Y4230448D01*
X3066000Y4240448D01*
X3056000D01*
X3046000Y4250448D01*
X3036000Y4240448D01*
X3026000D01*
X3036000Y4230448D01*
X3026000Y4220448D01*
X3036000D01*
X3046000Y4210448D01*
X3146000D02*
X3156000Y4220448D01*
X3166000D01*
X3156000Y4230448D01*
X3166000Y4240448D01*
X3156000D01*
X3146000Y4250448D01*
X3136000Y4240448D01*
X3126000D01*
X3136000Y4230448D01*
X3126000Y4220448D01*
X3136000D01*
X3146000Y4210448D01*
X3246000D02*
X3256000Y4220448D01*
X3266000D01*
X3256000Y4230448D01*
X3266000Y4240448D01*
X3256000D01*
X3246000Y4250448D01*
X3236000Y4240448D01*
X3226000D01*
X3236000Y4230448D01*
X3226000Y4220448D01*
X3236000D01*
X3246000Y4210448D01*
X3346000D02*
X3356000Y4220448D01*
X3366000D01*
X3356000Y4230448D01*
X3366000Y4240448D01*
X3356000D01*
X3346000Y4250448D01*
X3336000Y4240448D01*
X3326000D01*
X3336000Y4230448D01*
X3326000Y4220448D01*
X3336000D01*
X3346000Y4210448D01*
X3446000D02*
X3456000Y4220448D01*
X3466000D01*
X3456000Y4230448D01*
X3466000Y4240448D01*
X3456000D01*
X3446000Y4250448D01*
X3436000Y4240448D01*
X3426000D01*
X3436000Y4230448D01*
X3426000Y4220448D01*
X3436000D01*
X3446000Y4210448D01*
Y4801000D02*
X3456000Y4811000D01*
X3466000D01*
X3456000Y4821000D01*
X3466000Y4831000D01*
X3456000D01*
X3446000Y4841000D01*
X3436000Y4831000D01*
X3426000D01*
X3436000Y4821000D01*
X3426000Y4811000D01*
X3436000D01*
X3446000Y4801000D01*
X3346000D02*
X3356000Y4811000D01*
X3366000D01*
X3356000Y4821000D01*
X3366000Y4831000D01*
X3356000D01*
X3346000Y4841000D01*
X3336000Y4831000D01*
X3326000D01*
X3336000Y4821000D01*
X3326000Y4811000D01*
X3336000D01*
X3346000Y4801000D01*
X3246000D02*
X3256000Y4811000D01*
X3266000D01*
X3256000Y4821000D01*
X3266000Y4831000D01*
X3256000D01*
X3246000Y4841000D01*
X3236000Y4831000D01*
X3226000D01*
X3236000Y4821000D01*
X3226000Y4811000D01*
X3236000D01*
X3246000Y4801000D01*
X3146000D02*
X3156000Y4811000D01*
X3166000D01*
X3156000Y4821000D01*
X3166000Y4831000D01*
X3156000D01*
X3146000Y4841000D01*
X3136000Y4831000D01*
X3126000D01*
X3136000Y4821000D01*
X3126000Y4811000D01*
X3136000D01*
X3146000Y4801000D01*
X3046000D02*
X3056000Y4811000D01*
X3066000D01*
X3056000Y4821000D01*
X3066000Y4831000D01*
X3056000D01*
X3046000Y4841000D01*
X3036000Y4831000D01*
X3026000D01*
X3036000Y4821000D01*
X3026000Y4811000D01*
X3036000D01*
X3046000Y4801000D01*
X2530000Y4210448D02*
X2540000Y4220448D01*
X2550000D01*
X2540000Y4230448D01*
X2550000Y4240448D01*
X2540000D01*
X2530000Y4250448D01*
X2520000Y4240448D01*
X2510000D01*
X2520000Y4230448D01*
X2510000Y4220448D01*
X2520000D01*
X2530000Y4210448D01*
X2630000D02*
X2640000Y4220448D01*
X2650000D01*
X2640000Y4230448D01*
X2650000Y4240448D01*
X2640000D01*
X2630000Y4250448D01*
X2620000Y4240448D01*
X2610000D01*
X2620000Y4230448D01*
X2610000Y4220448D01*
X2620000D01*
X2630000Y4210448D01*
X2730000D02*
X2740000Y4220448D01*
X2750000D01*
X2740000Y4230448D01*
X2750000Y4240448D01*
X2740000D01*
X2730000Y4250448D01*
X2720000Y4240448D01*
X2710000D01*
X2720000Y4230448D01*
X2710000Y4220448D01*
X2720000D01*
X2730000Y4210448D01*
X2830000D02*
X2840000Y4220448D01*
X2850000D01*
X2840000Y4230448D01*
X2850000Y4240448D01*
X2840000D01*
X2830000Y4250448D01*
X2820000Y4240448D01*
X2810000D01*
X2820000Y4230448D01*
X2810000Y4220448D01*
X2820000D01*
X2830000Y4210448D01*
X2930000D02*
X2940000Y4220448D01*
X2950000D01*
X2940000Y4230448D01*
X2950000Y4240448D01*
X2940000D01*
X2930000Y4250448D01*
X2920000Y4240448D01*
X2910000D01*
X2920000Y4230448D01*
X2910000Y4220448D01*
X2920000D01*
X2930000Y4210448D01*
Y4801000D02*
X2940000Y4811000D01*
X2950000D01*
X2940000Y4821000D01*
X2950000Y4831000D01*
X2940000D01*
X2930000Y4841000D01*
X2920000Y4831000D01*
X2910000D01*
X2920000Y4821000D01*
X2910000Y4811000D01*
X2920000D01*
X2930000Y4801000D01*
X2830000D02*
X2840000Y4811000D01*
X2850000D01*
X2840000Y4821000D01*
X2850000Y4831000D01*
X2840000D01*
X2830000Y4841000D01*
X2820000Y4831000D01*
X2810000D01*
X2820000Y4821000D01*
X2810000Y4811000D01*
X2820000D01*
X2830000Y4801000D01*
X2730000D02*
X2740000Y4811000D01*
X2750000D01*
X2740000Y4821000D01*
X2750000Y4831000D01*
X2740000D01*
X2730000Y4841000D01*
X2720000Y4831000D01*
X2710000D01*
X2720000Y4821000D01*
X2710000Y4811000D01*
X2720000D01*
X2730000Y4801000D01*
X2630000D02*
X2640000Y4811000D01*
X2650000D01*
X2640000Y4821000D01*
X2650000Y4831000D01*
X2640000D01*
X2630000Y4841000D01*
X2620000Y4831000D01*
X2610000D01*
X2620000Y4821000D01*
X2610000Y4811000D01*
X2620000D01*
X2630000Y4801000D01*
X2530000D02*
X2540000Y4811000D01*
X2550000D01*
X2540000Y4821000D01*
X2550000Y4831000D01*
X2540000D01*
X2530000Y4841000D01*
X2520000Y4831000D01*
X2510000D01*
X2520000Y4821000D01*
X2510000Y4811000D01*
X2520000D01*
X2530000Y4801000D01*
X2014000Y4210448D02*
X2024000Y4220448D01*
X2034000D01*
X2024000Y4230448D01*
X2034000Y4240448D01*
X2024000D01*
X2014000Y4250448D01*
X2004000Y4240448D01*
X1994000D01*
X2004000Y4230448D01*
X1994000Y4220448D01*
X2004000D01*
X2014000Y4210448D01*
X2114000D02*
X2124000Y4220448D01*
X2134000D01*
X2124000Y4230448D01*
X2134000Y4240448D01*
X2124000D01*
X2114000Y4250448D01*
X2104000Y4240448D01*
X2094000D01*
X2104000Y4230448D01*
X2094000Y4220448D01*
X2104000D01*
X2114000Y4210448D01*
X2214000D02*
X2224000Y4220448D01*
X2234000D01*
X2224000Y4230448D01*
X2234000Y4240448D01*
X2224000D01*
X2214000Y4250448D01*
X2204000Y4240448D01*
X2194000D01*
X2204000Y4230448D01*
X2194000Y4220448D01*
X2204000D01*
X2214000Y4210448D01*
X2314000D02*
X2324000Y4220448D01*
X2334000D01*
X2324000Y4230448D01*
X2334000Y4240448D01*
X2324000D01*
X2314000Y4250448D01*
X2304000Y4240448D01*
X2294000D01*
X2304000Y4230448D01*
X2294000Y4220448D01*
X2304000D01*
X2314000Y4210448D01*
X2414000D02*
X2424000Y4220448D01*
X2434000D01*
X2424000Y4230448D01*
X2434000Y4240448D01*
X2424000D01*
X2414000Y4250448D01*
X2404000Y4240448D01*
X2394000D01*
X2404000Y4230448D01*
X2394000Y4220448D01*
X2404000D01*
X2414000Y4210448D01*
Y4801000D02*
X2424000Y4811000D01*
X2434000D01*
X2424000Y4821000D01*
X2434000Y4831000D01*
X2424000D01*
X2414000Y4841000D01*
X2404000Y4831000D01*
X2394000D01*
X2404000Y4821000D01*
X2394000Y4811000D01*
X2404000D01*
X2414000Y4801000D01*
X2314000D02*
X2324000Y4811000D01*
X2334000D01*
X2324000Y4821000D01*
X2334000Y4831000D01*
X2324000D01*
X2314000Y4841000D01*
X2304000Y4831000D01*
X2294000D01*
X2304000Y4821000D01*
X2294000Y4811000D01*
X2304000D01*
X2314000Y4801000D01*
X2214000D02*
X2224000Y4811000D01*
X2234000D01*
X2224000Y4821000D01*
X2234000Y4831000D01*
X2224000D01*
X2214000Y4841000D01*
X2204000Y4831000D01*
X2194000D01*
X2204000Y4821000D01*
X2194000Y4811000D01*
X2204000D01*
X2214000Y4801000D01*
X2114000D02*
X2124000Y4811000D01*
X2134000D01*
X2124000Y4821000D01*
X2134000Y4831000D01*
X2124000D01*
X2114000Y4841000D01*
X2104000Y4831000D01*
X2094000D01*
X2104000Y4821000D01*
X2094000Y4811000D01*
X2104000D01*
X2114000Y4801000D01*
X2014000D02*
X2024000Y4811000D01*
X2034000D01*
X2024000Y4821000D01*
X2034000Y4831000D01*
X2024000D01*
X2014000Y4841000D01*
X2004000Y4831000D01*
X1994000D01*
X2004000Y4821000D01*
X1994000Y4811000D01*
X2004000D01*
X2014000Y4801000D01*
X1498426Y4209724D02*
X1508426Y4219724D01*
X1518426D01*
X1508426Y4229724D01*
X1518426Y4239724D01*
X1508426D01*
X1498426Y4249724D01*
X1488426Y4239724D01*
X1478426D01*
X1488426Y4229724D01*
X1478426Y4219724D01*
X1488426D01*
X1498426Y4209724D01*
X1598426D02*
X1608426Y4219724D01*
X1618426D01*
X1608426Y4229724D01*
X1618426Y4239724D01*
X1608426D01*
X1598426Y4249724D01*
X1588426Y4239724D01*
X1578426D01*
X1588426Y4229724D01*
X1578426Y4219724D01*
X1588426D01*
X1598426Y4209724D01*
X1698426D02*
X1708426Y4219724D01*
X1718426D01*
X1708426Y4229724D01*
X1718426Y4239724D01*
X1708426D01*
X1698426Y4249724D01*
X1688426Y4239724D01*
X1678426D01*
X1688426Y4229724D01*
X1678426Y4219724D01*
X1688426D01*
X1698426Y4209724D01*
X1798426D02*
X1808426Y4219724D01*
X1818426D01*
X1808426Y4229724D01*
X1818426Y4239724D01*
X1808426D01*
X1798426Y4249724D01*
X1788426Y4239724D01*
X1778426D01*
X1788426Y4229724D01*
X1778426Y4219724D01*
X1788426D01*
X1798426Y4209724D01*
X1898426D02*
X1908426Y4219724D01*
X1918426D01*
X1908426Y4229724D01*
X1918426Y4239724D01*
X1908426D01*
X1898426Y4249724D01*
X1888426Y4239724D01*
X1878426D01*
X1888426Y4229724D01*
X1878426Y4219724D01*
X1888426D01*
X1898426Y4209724D01*
Y4800276D02*
X1908426Y4810276D01*
X1918426D01*
X1908426Y4820276D01*
X1918426Y4830276D01*
X1908426D01*
X1898426Y4840276D01*
X1888426Y4830276D01*
X1878426D01*
X1888426Y4820276D01*
X1878426Y4810276D01*
X1888426D01*
X1898426Y4800276D01*
X1798426D02*
X1808426Y4810276D01*
X1818426D01*
X1808426Y4820276D01*
X1818426Y4830276D01*
X1808426D01*
X1798426Y4840276D01*
X1788426Y4830276D01*
X1778426D01*
X1788426Y4820276D01*
X1778426Y4810276D01*
X1788426D01*
X1798426Y4800276D01*
X1698426D02*
X1708426Y4810276D01*
X1718426D01*
X1708426Y4820276D01*
X1718426Y4830276D01*
X1708426D01*
X1698426Y4840276D01*
X1688426Y4830276D01*
X1678426D01*
X1688426Y4820276D01*
X1678426Y4810276D01*
X1688426D01*
X1698426Y4800276D01*
X1598426D02*
X1608426Y4810276D01*
X1618426D01*
X1608426Y4820276D01*
X1618426Y4830276D01*
X1608426D01*
X1598426Y4840276D01*
X1588426Y4830276D01*
X1578426D01*
X1588426Y4820276D01*
X1578426Y4810276D01*
X1588426D01*
X1598426Y4800276D01*
X1498426D02*
X1508426Y4810276D01*
X1518426D01*
X1508426Y4820276D01*
X1518426Y4830276D01*
X1508426D01*
X1498426Y4840276D01*
X1488426Y4830276D01*
X1478426D01*
X1488426Y4820276D01*
X1478426Y4810276D01*
X1488426D01*
X1498426Y4800276D01*
X3680000Y4780000D02*
X3690000Y4800000D01*
X3680000Y4820000D01*
X3700000Y4810000D01*
X3720000Y4820000D01*
X3710000Y4800000D01*
X3720000Y4780000D01*
X3700000Y4790000D01*
X3680000Y4780000D01*
X3780000D02*
X3790000Y4800000D01*
X3780000Y4820000D01*
X3800000Y4810000D01*
X3820000Y4820000D01*
X3810000Y4800000D01*
X3820000Y4780000D01*
X3800000Y4790000D01*
X3780000Y4780000D01*
X3880000D02*
X3890000Y4800000D01*
X3880000Y4820000D01*
X3900000Y4810000D01*
X3920000Y4820000D01*
X3910000Y4800000D01*
X3920000Y4780000D01*
X3900000Y4790000D01*
X3880000Y4780000D01*
X3980000D02*
X3990000Y4800000D01*
X3980000Y4820000D01*
X4000000Y4810000D01*
X4020000Y4820000D01*
X4010000Y4800000D01*
X4020000Y4780000D01*
X4000000Y4790000D01*
X3980000Y4780000D01*
X4080000D02*
X4090000Y4800000D01*
X4080000Y4820000D01*
X4100000Y4810000D01*
X4120000Y4820000D01*
X4110000Y4800000D01*
X4120000Y4780000D01*
X4100000Y4790000D01*
X4080000Y4780000D01*
Y4680000D02*
X4090000Y4700000D01*
X4080000Y4720000D01*
X4100000Y4710000D01*
X4120000Y4720000D01*
X4110000Y4700000D01*
X4120000Y4680000D01*
X4100000Y4690000D01*
X4080000Y4680000D01*
X3980000D02*
X3990000Y4700000D01*
X3980000Y4720000D01*
X4000000Y4710000D01*
X4020000Y4720000D01*
X4010000Y4700000D01*
X4020000Y4680000D01*
X4000000Y4690000D01*
X3980000Y4680000D01*
X3880000D02*
X3890000Y4700000D01*
X3880000Y4720000D01*
X3900000Y4710000D01*
X3920000Y4720000D01*
X3910000Y4700000D01*
X3920000Y4680000D01*
X3900000Y4690000D01*
X3880000Y4680000D01*
X3780000D02*
X3790000Y4700000D01*
X3780000Y4720000D01*
X3800000Y4710000D01*
X3820000Y4720000D01*
X3810000Y4700000D01*
X3820000Y4680000D01*
X3800000Y4690000D01*
X3780000Y4680000D01*
X3680000D02*
X3690000Y4700000D01*
X3680000Y4720000D01*
X3700000Y4710000D01*
X3720000Y4720000D01*
X3710000Y4700000D01*
X3720000Y4680000D01*
X3700000Y4690000D01*
X3680000Y4680000D01*
X1925000Y3724000D02*
Y3714000D01*
X1945000D01*
Y3724000D01*
X1955000D01*
Y3744000D01*
X1945000D01*
Y3754000D01*
X1925000D01*
Y3744000D01*
X1915000D01*
Y3724000D01*
X1925000D01*
X2962000Y3946504D02*
Y3936504D01*
X2982000D01*
Y3946504D01*
X2992000D01*
Y3966504D01*
X2982000D01*
Y3976504D01*
X2962000D01*
Y3966504D01*
X2952000D01*
Y3946504D01*
X2962000D01*
X1424000Y4083000D02*
Y4073000D01*
X1444000D01*
Y4083000D01*
X1454000D01*
Y4103000D01*
X1444000D01*
Y4113000D01*
X1424000D01*
Y4103000D01*
X1414000D01*
Y4083000D01*
X1424000D01*
D53*
X2397000Y3676574D02*
G03*
X2397000Y3676574I-20000J0D01*
G01*
Y3873426D02*
G03*
X2397000Y3873426I-20000J0D01*
G01*
%TF.MD5,697981ec775aae1815def3344bbb4cd5*%
M02*
