%TF.GenerationSoftware,Altium Limited,Altium Designer,22.4.2 (48)*%
G04 Layer_Physical_Order=1*
G04 Layer_Color=255*
%FSLAX26Y26*%
%MOIN*%
%TF.SameCoordinates,DC04713F-A1B7-43D7-85F6-64DFF616D11F*%
%TF.FilePolarity,Positive*%
%TF.FileFunction,Copper,L1,Top,Signal*%
%TF.Part,Single*%
G01*
G75*
%TA.AperFunction,SMDPad,CuDef*%
%ADD10R,0.051181X0.035433*%
%ADD11R,0.027559X0.074803*%
%ADD12R,0.057087X0.039370*%
%ADD13R,0.057874X0.040157*%
%TA.AperFunction,Conductor*%
%ADD14C,0.015000*%
%TA.AperFunction,ViaPad*%
%ADD15C,0.200000*%
%TA.AperFunction,ComponentPad*%
G04:AMPARAMS|DCode=16|XSize=55.118mil|YSize=55.118mil|CornerRadius=13.78mil|HoleSize=0mil|Usage=FLASHONLY|Rotation=270.000|XOffset=0mil|YOffset=0mil|HoleType=Round|Shape=RoundedRectangle|*
%AMROUNDEDRECTD16*
21,1,0.055118,0.027559,0,0,270.0*
21,1,0.027559,0.055118,0,0,270.0*
1,1,0.027559,-0.013780,-0.013780*
1,1,0.027559,-0.013780,0.013780*
1,1,0.027559,0.013780,0.013780*
1,1,0.027559,0.013780,-0.013780*
%
%ADD16ROUNDEDRECTD16*%
%ADD17C,0.055118*%
G04:AMPARAMS|DCode=18|XSize=153.543mil|YSize=106.299mil|CornerRadius=26.575mil|HoleSize=0mil|Usage=FLASHONLY|Rotation=90.000|XOffset=0mil|YOffset=0mil|HoleType=Round|Shape=RoundedRectangle|*
%AMROUNDEDRECTD18*
21,1,0.153543,0.053150,0,0,90.0*
21,1,0.100394,0.106299,0,0,90.0*
1,1,0.053150,0.026575,0.050197*
1,1,0.053150,0.026575,-0.050197*
1,1,0.053150,-0.026575,-0.050197*
1,1,0.053150,-0.026575,0.050197*
%
%ADD18ROUNDEDRECTD18*%
%ADD19C,0.059055*%
G04:AMPARAMS|DCode=20|XSize=59.055mil|YSize=59.055mil|CornerRadius=14.764mil|HoleSize=0mil|Usage=FLASHONLY|Rotation=0.000|XOffset=0mil|YOffset=0mil|HoleType=Round|Shape=RoundedRectangle|*
%AMROUNDEDRECTD20*
21,1,0.059055,0.029527,0,0,0.0*
21,1,0.029527,0.059055,0,0,0.0*
1,1,0.029528,0.014764,-0.014764*
1,1,0.029528,-0.014764,-0.014764*
1,1,0.029528,-0.014764,0.014764*
1,1,0.029528,0.014764,0.014764*
%
%ADD20ROUNDEDRECTD20*%
%ADD21C,0.055000*%
%TA.AperFunction,ViaPad*%
%ADD22C,0.045000*%
D10*
X2066000Y3752598D02*
D03*
Y3827402D02*
D03*
D11*
X1870000Y4007976D02*
D03*
X1820000D02*
D03*
X1770000D02*
D03*
X1720000D02*
D03*
X1670000D02*
D03*
X1620000D02*
D03*
X1570000D02*
D03*
X1520000D02*
D03*
X1470000D02*
D03*
X1420000D02*
D03*
Y3630024D02*
D03*
X1470000D02*
D03*
X1520000D02*
D03*
X1570000D02*
D03*
X1620000D02*
D03*
X1670000D02*
D03*
X1720000D02*
D03*
X1770000D02*
D03*
X1820000D02*
D03*
X1870000D02*
D03*
D12*
X3460000Y3708598D02*
D03*
Y3783402D02*
D03*
X3160000Y3708598D02*
D03*
Y3783402D02*
D03*
X2860000Y3708598D02*
D03*
Y3783402D02*
D03*
D13*
X3457000Y3956504D02*
D03*
Y4019496D02*
D03*
X3157000Y3956504D02*
D03*
Y4019496D02*
D03*
X2857000Y3956504D02*
D03*
Y4019496D02*
D03*
D14*
X3190000Y3783402D02*
X3460000D01*
X2923000Y3956504D02*
X2972000D01*
X2857000D02*
X2923000D01*
X2857000Y3783402D02*
Y3956504D01*
X3655000Y4218000D02*
Y4720000D01*
Y4179496D02*
Y4218000D01*
X3420000Y3956504D02*
X3457000D01*
X3410000Y3966504D02*
X3420000Y3956504D01*
X3410000Y3966504D02*
Y4120000D01*
X3574000Y4284000D01*
Y4724180D01*
X3649820Y4800000D01*
X3700000D01*
X3741930Y3809054D02*
Y4000000D01*
Y3809054D02*
X3826574Y3724410D01*
X2066000Y3827402D02*
X2330976D01*
X2377000Y3873426D01*
X4050000Y4750000D02*
X4100000Y4800000D01*
X4050000Y4321850D02*
Y4750000D01*
X4023426Y4295276D02*
X4050000Y4321850D01*
X4055000Y4845000D02*
X4100000Y4800000D01*
X3860000Y4845000D02*
X4055000D01*
X3850000Y4780000D02*
X3860000Y4845000D01*
X3815000Y4745000D02*
X3850000Y4780000D01*
X3680000Y4745000D02*
X3815000D01*
X3655000Y4720000D02*
X3680000Y4745000D01*
X3495000Y4019496D02*
X3655000Y4179496D01*
X3457000Y4019496D02*
X3495000D01*
X3655000Y4218000D02*
X3780000Y4343000D01*
X3851000D01*
X3874000Y4320000D01*
Y4248000D02*
Y4320000D01*
X3748000Y4122000D02*
X3874000Y4248000D01*
X3713000Y4122000D02*
X3748000D01*
X3671000Y4080000D02*
X3713000Y4122000D01*
X3671000Y3795598D02*
Y4080000D01*
X3584000Y3708598D02*
X3671000Y3795598D01*
X3460000Y3708598D02*
X3584000D01*
X1670000Y4007976D02*
Y4114094D01*
X1598426Y4185668D02*
X1670000Y4114094D01*
X1598426Y4185668D02*
Y4229724D01*
X2314000Y4230448D02*
X2423000Y4121448D01*
Y3828000D02*
Y4121448D01*
X2387000Y3792000D02*
X2423000Y3828000D01*
X2005000Y3792000D02*
X2387000D01*
X1996000Y3801000D02*
X2005000Y3792000D01*
X1760000Y3801000D02*
X1996000D01*
X1720000Y3841000D02*
X1760000Y3801000D01*
X1720000Y3841000D02*
Y4007976D01*
X1770000D02*
Y4091642D01*
X1651000Y4210642D02*
X1770000Y4091642D01*
X1651000Y4210642D02*
Y4699000D01*
X1751000Y4799000D01*
Y4840000D01*
X1779000Y4868000D01*
X1850702D01*
X1898426Y4820276D01*
X1620000Y3630024D02*
Y3716482D01*
X1388000Y3948482D02*
X1620000Y3716482D01*
X1388000Y3948482D02*
Y4816150D01*
X1464154Y4892304D01*
X1626398D01*
X1698426Y4820276D01*
X1570000Y4007976D02*
Y4064094D01*
X1451398Y4182696D02*
X1570000Y4064094D01*
X1451398Y4182696D02*
Y4673248D01*
X1598426Y4820276D01*
X1520000Y4007976D02*
Y4064094D01*
X1426398Y4157696D02*
X1520000Y4064094D01*
X1426398Y4157696D02*
Y4748248D01*
X1498426Y4820276D01*
X1470000Y3580000D02*
Y3630024D01*
Y3580000D02*
X1499878Y3550122D01*
X2417122D01*
X2678000Y3811000D01*
Y4253000D01*
X3246000Y4821000D01*
X1720000Y3630024D02*
Y3673000D01*
X1781000Y3734000D01*
X1935000D01*
X1770000Y3586000D02*
Y3630024D01*
Y3586000D02*
X1780878Y3575122D01*
X2366122D01*
X2582000Y3791000D01*
Y4360000D01*
X2880000Y4658000D01*
Y4840000D01*
X2920000Y4880000D01*
X3720000D01*
X3800000Y4800000D01*
X3160000Y3708598D02*
X3176598D01*
X3214000Y3746000D01*
X3502000D01*
X3633000Y3877000D01*
Y4101702D01*
X3826574Y4295276D01*
X3160000Y3783402D02*
X3190000D01*
X3204000Y3797402D01*
Y4048000D01*
X3160000Y4092000D02*
X3204000Y4048000D01*
X3058496Y4092000D02*
X3160000D01*
X2923000Y3956504D02*
X3058496Y4092000D01*
X2857000Y3783402D02*
X2860000D01*
X3120000Y3708598D02*
X3160000D01*
X3110000Y3718598D02*
X3120000Y3708598D01*
X3110000Y3718598D02*
Y4009496D01*
X3120000Y4019496D01*
X3157000D01*
X2930000Y4230448D02*
X2991448Y4169000D01*
X3384552D01*
X3446000Y4230448D01*
X2782000Y4773000D02*
X2830000Y4821000D01*
X2362000Y4773000D02*
X2782000D01*
X2314000Y4821000D02*
X2362000Y4773000D01*
X1570000Y3630024D02*
Y3680000D01*
X1363000Y3887000D02*
X1570000Y3680000D01*
X1363000Y3887000D02*
Y4880000D01*
X1403000Y4920000D01*
X2115000D01*
X2214000Y4821000D01*
X1520000Y3630024D02*
Y3678000D01*
X1338000Y3860000D02*
X1520000Y3678000D01*
X1338000Y3860000D02*
Y4920000D01*
X1378000Y4960000D01*
X2591000D01*
X2730000Y4821000D01*
X1150000Y3650000D02*
Y4850000D01*
X1798426Y4820276D02*
X1845702Y4773000D01*
X2266000D01*
X2314000Y4821000D01*
X1620000Y4007976D02*
Y4108150D01*
X1498426Y4229724D02*
X1620000Y4108150D01*
X1470000Y4007976D02*
Y4057000D01*
X1434000Y4093000D02*
X1470000Y4057000D01*
X3900598Y4319678D02*
X3925000Y4295276D01*
X3900598Y4319678D02*
Y4499402D01*
X3700000Y4700000D02*
X3900598Y4499402D01*
X2860000Y3668000D02*
Y3708598D01*
Y3668000D02*
X2920000Y3608000D01*
X3907016D01*
X4023426Y3724410D01*
X2820000Y4019496D02*
X2857000D01*
X2800000Y3999496D02*
X2820000Y4019496D01*
X2800000Y3728598D02*
Y3999496D01*
Y3728598D02*
X2820000Y3708598D01*
X2860000D01*
X2239448Y4305000D02*
X2314000Y4230448D01*
X1873702Y4305000D02*
X2239448D01*
X1798426Y4229724D02*
X1873702Y4305000D01*
X2830000Y4230448D02*
X2932552Y4333000D01*
X3243448D01*
X3346000Y4230448D01*
X1670000Y3630024D02*
Y3702598D01*
X1742002Y3774600D01*
X1952534D01*
X1974536Y3752598D01*
X2066000D01*
X4160000Y3650000D02*
X4450000D01*
X4108070Y3701930D02*
X4160000Y3650000D01*
X4108070Y3701930D02*
Y4000000D01*
X1948598Y3827402D02*
X2066000D01*
X1870000Y3906000D02*
X1948598Y3827402D01*
X1870000Y3906000D02*
Y4007976D01*
X2066000Y3752598D02*
X2300976D01*
X2377000Y3676574D01*
X3974000Y3773836D02*
X4023426Y3724410D01*
X3974000Y3773836D02*
Y4499000D01*
X3950000Y4523000D02*
X3974000Y4499000D01*
X3950000Y4523000D02*
Y4750000D01*
X3900000Y4800000D02*
X3950000Y4750000D01*
X3457000Y3871000D02*
Y3956504D01*
Y3871000D02*
X3460000Y3868000D01*
Y3783402D02*
Y3868000D01*
X3157000Y3871000D02*
Y3956504D01*
Y3871000D02*
X3160000Y3868000D01*
Y3783402D02*
Y3868000D01*
X1820000Y4007976D02*
Y4082000D01*
X1747000Y4155000D02*
X1820000Y4082000D01*
X1747000Y4155000D02*
Y4498574D01*
X1798426Y4550000D01*
Y4820276D01*
D15*
X1150000Y3650000D02*
D03*
X4450000D02*
D03*
Y4850000D02*
D03*
X1150000D02*
D03*
D16*
X2377000Y3676574D02*
D03*
D17*
Y3873426D02*
D03*
D18*
X4108070Y4000000D02*
D03*
X3741930D02*
D03*
D19*
X3925000Y4295276D02*
D03*
X3826574D02*
D03*
X4023426D02*
D03*
X3826574Y3724410D02*
D03*
X4023426D02*
D03*
X3146000Y4230448D02*
D03*
X3246000D02*
D03*
X3346000D02*
D03*
X3446000D02*
D03*
Y4821000D02*
D03*
X3346000D02*
D03*
X3246000D02*
D03*
X3146000D02*
D03*
X3046000D02*
D03*
X2630000Y4230448D02*
D03*
X2730000D02*
D03*
X2830000D02*
D03*
X2930000D02*
D03*
Y4821000D02*
D03*
X2830000D02*
D03*
X2730000D02*
D03*
X2630000D02*
D03*
X2530000D02*
D03*
X2114000Y4230448D02*
D03*
X2214000D02*
D03*
X2314000D02*
D03*
X2414000D02*
D03*
Y4821000D02*
D03*
X2314000D02*
D03*
X2214000D02*
D03*
X2114000D02*
D03*
X2014000D02*
D03*
X1598426Y4229724D02*
D03*
X1698426D02*
D03*
X1798426D02*
D03*
X1898426D02*
D03*
Y4820276D02*
D03*
X1798426D02*
D03*
X1698426D02*
D03*
X1598426D02*
D03*
X1498426D02*
D03*
D20*
X3046000Y4230448D02*
D03*
X2530000D02*
D03*
X2014000D02*
D03*
X1498426Y4229724D02*
D03*
D21*
X3700000Y4800000D02*
D03*
X3800000D02*
D03*
X3900000D02*
D03*
X4000000D02*
D03*
X4100000D02*
D03*
Y4700000D02*
D03*
X4000000D02*
D03*
X3900000D02*
D03*
X3800000D02*
D03*
X3700000D02*
D03*
D22*
X1935000Y3734000D02*
D03*
X2972000Y3956504D02*
D03*
X1434000Y4093000D02*
D03*
%TF.MD5,0b55bd0003840d2f8160891a89fae20d*%
M02*
