%TF.GenerationSoftware,Altium Limited,Altium Designer,22.4.2 (48)*%
G04 Layer_Color=65535*
%FSLAX26Y26*%
%MOIN*%
%TF.SameCoordinates,DC04713F-A1B7-43D7-85F6-64DFF616D11F*%
%TF.FilePolarity,Positive*%
%TF.FileFunction,Legend,Top*%
%TF.Part,Single*%
G01*
G75*
%TA.AperFunction,NonConductor*%
%ADD23C,0.007874*%
%ADD24C,0.009842*%
%ADD25C,0.020000*%
%ADD26C,0.006000*%
%ADD27C,0.005906*%
%ADD28C,0.010000*%
D23*
X2583693Y3775000D02*
G03*
X2583693Y3775000I-206693J0D01*
G01*
X3694686Y4082678D02*
Y4255906D01*
Y3714566D02*
Y3917322D01*
Y3714566D02*
X3787204D01*
X3865944D02*
X3984056D01*
X4062796D02*
X4155316D01*
X3694686Y4255906D02*
X4155316D01*
Y3714566D02*
Y3917322D01*
Y4082678D02*
Y4255906D01*
X1895000Y3681204D02*
Y3956796D01*
X1395000Y3681204D02*
X1895000D01*
X1395000D02*
Y3956796D01*
X1895000D01*
X1897560Y3970574D02*
Y4045378D01*
X2996984Y4176316D02*
Y4875134D01*
Y4176316D02*
X3495016D01*
Y4875134D01*
X2996984D02*
X3495016D01*
X2480984Y4176316D02*
Y4875134D01*
Y4176316D02*
X2979016D01*
Y4875134D01*
X2480984D02*
X2979016D01*
X1964984Y4176316D02*
Y4875134D01*
Y4176316D02*
X2463016D01*
Y4875134D01*
X1964984D02*
X2463016D01*
X1449410Y4175590D02*
Y4874410D01*
Y4175590D02*
X1947440D01*
Y4874410D01*
X1449410D02*
X1947440D01*
X3439330Y3746000D02*
X3480670D01*
X3139330D02*
X3180670D01*
X2839330D02*
X2880670D01*
D24*
X3451709Y4157614D02*
G03*
X3451709Y4157614I-4921J0D01*
G01*
X2935709D02*
G03*
X2935709Y4157614I-4921J0D01*
G01*
X2419709D02*
G03*
X2419709Y4157614I-4921J0D01*
G01*
X1904134Y4156890D02*
G03*
X1904134Y4156890I-4921J0D01*
G01*
D25*
X3635000Y4800000D02*
G03*
X3635000Y4800000I-15000J0D01*
G01*
D26*
X3645000Y4645788D02*
X4155000D01*
Y4855000D01*
X3645000D02*
X4155000D01*
X3645000Y4645788D02*
Y4855000D01*
D27*
X2376990Y3556496D02*
Y3517139D01*
X2396669Y3536817D02*
X2357312D01*
D28*
X3729987Y4413984D02*
X3719990Y4423981D01*
X3699997D01*
X3690000Y4413984D01*
Y4403987D01*
X3699997Y4393990D01*
X3719990D01*
X3729987Y4383993D01*
Y4373997D01*
X3719990Y4364000D01*
X3699997D01*
X3690000Y4373997D01*
X3749981Y4364000D02*
X3769974D01*
X3759977D01*
Y4423981D01*
X3749981Y4413984D01*
X3430000Y3844000D02*
Y3903981D01*
X3459990D01*
X3469987Y3893984D01*
Y3873990D01*
X3459990Y3863994D01*
X3430000D01*
X3449994D02*
X3469987Y3844000D01*
X3489981Y3893984D02*
X3499977Y3903981D01*
X3519971D01*
X3529968Y3893984D01*
Y3883987D01*
X3519971Y3873990D01*
X3509974D01*
X3519971D01*
X3529968Y3863994D01*
Y3853997D01*
X3519971Y3844000D01*
X3499977D01*
X3489981Y3853997D01*
X3589948Y3844000D02*
X3549961D01*
X3589948Y3883987D01*
Y3893984D01*
X3579952Y3903981D01*
X3559958D01*
X3549961Y3893984D01*
X3130000Y3844000D02*
Y3903981D01*
X3159990D01*
X3169987Y3893984D01*
Y3873990D01*
X3159990Y3863994D01*
X3130000D01*
X3149994D02*
X3169987Y3844000D01*
X3189981Y3893984D02*
X3199977Y3903981D01*
X3219971D01*
X3229968Y3893984D01*
Y3883987D01*
X3219971Y3873990D01*
X3209974D01*
X3219971D01*
X3229968Y3863994D01*
Y3853997D01*
X3219971Y3844000D01*
X3199977D01*
X3189981Y3853997D01*
X3249961Y3844000D02*
X3269955D01*
X3259958D01*
Y3903981D01*
X3249961Y3893984D01*
X2830000Y3844000D02*
Y3903981D01*
X2859990D01*
X2869987Y3893984D01*
Y3873990D01*
X2859990Y3863994D01*
X2830000D01*
X2849994D02*
X2869987Y3844000D01*
X2889981Y3893984D02*
X2899977Y3903981D01*
X2919971D01*
X2929968Y3893984D01*
Y3883987D01*
X2919971Y3873990D01*
X2909974D01*
X2919971D01*
X2929968Y3863994D01*
Y3853997D01*
X2919971Y3844000D01*
X2899977D01*
X2889981Y3853997D01*
X2949961Y3893984D02*
X2959958Y3903981D01*
X2979952D01*
X2989948Y3893984D01*
Y3853997D01*
X2979952Y3844000D01*
X2959958D01*
X2949961Y3853997D01*
Y3893984D01*
X4100000Y4470981D02*
Y4411000D01*
Y4430993D01*
X4139987Y4470981D01*
X4109997Y4440990D01*
X4139987Y4411000D01*
X4199968D02*
X4159981D01*
X4199968Y4450987D01*
Y4460984D01*
X4189971Y4470981D01*
X4169977D01*
X4159981Y4460984D01*
X4219961D02*
X4229958Y4470981D01*
X4249952D01*
X4259948Y4460984D01*
Y4420997D01*
X4249952Y4411000D01*
X4229958D01*
X4219961Y4420997D01*
Y4460984D01*
X1388000Y4145981D02*
X1407994D01*
X1397997D01*
Y4086000D01*
X1388000D01*
X1407994D01*
X1477971Y4135984D02*
X1467974Y4145981D01*
X1447981D01*
X1437984Y4135984D01*
Y4095997D01*
X1447981Y4086000D01*
X1467974D01*
X1477971Y4095997D01*
X1497964Y4086000D02*
X1517958D01*
X1507961D01*
Y4145981D01*
X1497964Y4135984D01*
X2998000Y4973981D02*
Y4914000D01*
X3027990D01*
X3037987Y4923997D01*
Y4963984D01*
X3027990Y4973981D01*
X2998000D01*
X3097968Y4963984D02*
X3087971Y4973981D01*
X3067977D01*
X3057981Y4963984D01*
Y4953987D01*
X3067977Y4943990D01*
X3087971D01*
X3097968Y4933993D01*
Y4923997D01*
X3087971Y4914000D01*
X3067977D01*
X3057981Y4923997D01*
X3147952Y4914000D02*
Y4973981D01*
X3117961Y4943990D01*
X3157948D01*
X2482000Y4973981D02*
Y4914000D01*
X2511990D01*
X2521987Y4923997D01*
Y4963984D01*
X2511990Y4973981D01*
X2482000D01*
X2581968Y4963984D02*
X2571971Y4973981D01*
X2551977D01*
X2541981Y4963984D01*
Y4953987D01*
X2551977Y4943990D01*
X2571971D01*
X2581968Y4933993D01*
Y4923997D01*
X2571971Y4914000D01*
X2551977D01*
X2541981Y4923997D01*
X2601961Y4963984D02*
X2611958Y4973981D01*
X2631952D01*
X2641948Y4963984D01*
Y4953987D01*
X2631952Y4943990D01*
X2621955D01*
X2631952D01*
X2641948Y4933993D01*
Y4923997D01*
X2631952Y4914000D01*
X2611958D01*
X2601961Y4923997D01*
X1966000Y4973981D02*
Y4914000D01*
X1995990D01*
X2005987Y4923997D01*
Y4963984D01*
X1995990Y4973981D01*
X1966000D01*
X2065968Y4963984D02*
X2055971Y4973981D01*
X2035977D01*
X2025981Y4963984D01*
Y4953987D01*
X2035977Y4943990D01*
X2055971D01*
X2065968Y4933993D01*
Y4923997D01*
X2055971Y4914000D01*
X2035977D01*
X2025981Y4923997D01*
X2125948Y4914000D02*
X2085961D01*
X2125948Y4953987D01*
Y4963984D01*
X2115952Y4973981D01*
X2095958D01*
X2085961Y4963984D01*
X1451000Y4972981D02*
Y4913000D01*
X1480990D01*
X1490987Y4922997D01*
Y4962984D01*
X1480990Y4972981D01*
X1451000D01*
X1550968Y4962984D02*
X1540971Y4972981D01*
X1520977D01*
X1510981Y4962984D01*
Y4952987D01*
X1520977Y4942990D01*
X1540971D01*
X1550968Y4932993D01*
Y4922997D01*
X1540971Y4913000D01*
X1520977D01*
X1510981Y4922997D01*
X1570961Y4913000D02*
X1590955D01*
X1580958D01*
Y4972981D01*
X1570961Y4962984D01*
X3470987Y4125984D02*
X3460990Y4135981D01*
X3440997D01*
X3431000Y4125984D01*
Y4085997D01*
X3440997Y4076000D01*
X3460990D01*
X3470987Y4085997D01*
X3530968Y4076000D02*
X3490981D01*
X3530968Y4115987D01*
Y4125984D01*
X3520971Y4135981D01*
X3500977D01*
X3490981Y4125984D01*
X3580952Y4076000D02*
Y4135981D01*
X3550961Y4105990D01*
X3590948D01*
X3170987Y4125984D02*
X3160990Y4135981D01*
X3140997D01*
X3131000Y4125984D01*
Y4085997D01*
X3140997Y4076000D01*
X3160990D01*
X3170987Y4085997D01*
X3230968Y4076000D02*
X3190981D01*
X3230968Y4115987D01*
Y4125984D01*
X3220971Y4135981D01*
X3200977D01*
X3190981Y4125984D01*
X3250961D02*
X3260958Y4135981D01*
X3280952D01*
X3290948Y4125984D01*
Y4115987D01*
X3280952Y4105990D01*
X3270955D01*
X3280952D01*
X3290948Y4095994D01*
Y4085997D01*
X3280952Y4076000D01*
X3260958D01*
X3250961Y4085997D01*
X2870987Y4125984D02*
X2860990Y4135981D01*
X2840997D01*
X2831000Y4125984D01*
Y4085997D01*
X2840997Y4076000D01*
X2860990D01*
X2870987Y4085997D01*
X2930968Y4076000D02*
X2890981D01*
X2930968Y4115987D01*
Y4125984D01*
X2920971Y4135981D01*
X2900977D01*
X2890981Y4125984D01*
X2990948Y4076000D02*
X2950961D01*
X2990948Y4115987D01*
Y4125984D01*
X2980952Y4135981D01*
X2960958D01*
X2950961Y4125984D01*
X2080987Y3933984D02*
X2070990Y3943981D01*
X2050997D01*
X2041000Y3933984D01*
Y3893997D01*
X2050997Y3884000D01*
X2070990D01*
X2080987Y3893997D01*
X2140968Y3884000D02*
X2100981D01*
X2140968Y3923987D01*
Y3933984D01*
X2130971Y3943981D01*
X2110977D01*
X2100981Y3933984D01*
X2160961Y3884000D02*
X2180955D01*
X2170958D01*
Y3943981D01*
X2160961Y3933984D01*
X2210987Y4070984D02*
X2200990Y4080981D01*
X2180997D01*
X2171000Y4070984D01*
Y4030997D01*
X2180997Y4021000D01*
X2200990D01*
X2210987Y4030997D01*
X2270968Y4021000D02*
X2230981D01*
X2270968Y4060987D01*
Y4070984D01*
X2260971Y4080981D01*
X2240977D01*
X2230981Y4070984D01*
X2290961D02*
X2300958Y4080981D01*
X2320952D01*
X2330948Y4070984D01*
Y4030997D01*
X2320952Y4021000D01*
X2300958D01*
X2290961Y4030997D01*
Y4070984D01*
%TF.MD5,d8235a78c7aef2d8883704a28531b062*%
M02*
