%TF.GenerationSoftware,Altium Limited,Altium Designer,22.4.2 (48)*%
G04 Layer_Physical_Order=1*
G04 Layer_Color=255*
%FSLAX26Y26*%
%MOIN*%
%TF.SameCoordinates,31C44E49-19BD-49CD-A116-05C5AD78183A*%
%TF.FilePolarity,Positive*%
%TF.FileFunction,Copper,L1,Top,Signal*%
%TF.Part,Single*%
G01*
G75*
%TA.AperFunction,SMDPad,CuDef*%
%ADD10R,0.100000X0.068000*%
%TA.AperFunction,Conductor*%
%ADD11C,0.020000*%
%TA.AperFunction,NonConductor*%
%ADD12C,0.010000*%
%TA.AperFunction,ViaPad*%
%ADD13C,0.060000*%
%ADD14C,0.200000*%
%TA.AperFunction,ComponentPad*%
%ADD15R,0.064961X0.064961*%
%ADD16C,0.064961*%
%TA.AperFunction,ViaPad*%
%ADD17C,0.050000*%
G36*
X500512Y1012559D02*
X439488D01*
Y1063780D01*
X500512D01*
Y1012559D01*
D02*
G37*
G36*
X750512Y1008779D02*
X689488D01*
Y1060000D01*
X750512D01*
Y1008779D01*
D02*
G37*
G36*
X235512D02*
X174488D01*
Y1060000D01*
X235512D01*
Y1008779D01*
D02*
G37*
G36*
X750512Y712559D02*
X689488D01*
Y763779D01*
X750512D01*
Y712559D01*
D02*
G37*
G36*
X235512D02*
X174488D01*
Y763779D01*
X235512D01*
Y712559D01*
D02*
G37*
G36*
X500512Y698779D02*
X439488D01*
Y750000D01*
X500512D01*
Y698779D01*
D02*
G37*
D10*
X720000Y643780D02*
D03*
Y818780D02*
D03*
X470000D02*
D03*
Y643780D02*
D03*
X205000D02*
D03*
Y818780D02*
D03*
X720000Y1128780D02*
D03*
Y953780D02*
D03*
X470000Y943780D02*
D03*
Y1118780D02*
D03*
X205000Y1128780D02*
D03*
Y953780D02*
D03*
D11*
X90000Y1295000D02*
X175000Y1380000D01*
X90000Y415000D02*
X170000Y335000D01*
X90000Y415000D02*
Y1295000D01*
X279860Y643780D02*
X339260Y584380D01*
Y540740D02*
X345000Y535000D01*
X339260Y540740D02*
Y584380D01*
X205000Y643780D02*
X279860D01*
X818000Y601000D02*
Y1000000D01*
X450000Y1575000D02*
X763000D01*
X818000Y1520000D01*
X450000Y233000D02*
X818000Y601000D01*
X450000Y130000D02*
Y233000D01*
X720000Y953780D02*
X771780D01*
X818000Y1000000D01*
Y1520000D01*
X558220Y1380000D02*
X730118D01*
X307000Y1128780D02*
X558220Y1380000D01*
X205000Y1128780D02*
X307000D01*
X720000Y818780D02*
Y953780D01*
X342000Y943780D02*
X470000D01*
X332000Y953780D02*
X342000Y943780D01*
X205000Y953780D02*
X332000D01*
X600000Y1128780D02*
X720000D01*
X590000Y1118780D02*
X600000Y1128780D01*
X470000Y1118780D02*
X590000D01*
X205000Y818780D02*
X470000D01*
Y643780D02*
X720000D01*
D12*
X620000Y50000D02*
X639994D01*
X629997D01*
Y109981D01*
X620000Y99984D01*
X709971Y50000D02*
X669984D01*
X709971Y89987D01*
Y99984D01*
X699974Y109981D01*
X679981D01*
X669984Y99984D01*
X729964Y109981D02*
Y69993D01*
X749958Y50000D01*
X769952Y69993D01*
Y109981D01*
X174987Y99984D02*
X164990Y109981D01*
X144997D01*
X135000Y99984D01*
Y59997D01*
X144997Y50000D01*
X164990D01*
X174987Y59997D01*
Y79990D01*
X154994D01*
X194981Y50000D02*
Y109981D01*
X234968Y50000D01*
Y109981D01*
X254961D02*
Y50000D01*
X284952D01*
X294948Y59997D01*
Y99984D01*
X284952Y109981D01*
X254961D01*
D13*
X65000Y85000D02*
D03*
X835000D02*
D03*
D14*
X450000Y130000D02*
D03*
Y1575000D02*
D03*
D15*
X170000Y335000D02*
D03*
X175000Y1380000D02*
D03*
D16*
X725118Y335000D02*
D03*
X730118Y1380000D02*
D03*
D17*
X345000Y535000D02*
D03*
%TF.MD5,f871d698783c0c26686d7c4b9b836df8*%
M02*
