%TF.GenerationSoftware,Altium Limited,Altium Designer,22.4.2 (48)*%
G04 Layer_Color=2752767*
%FSLAX26Y26*%
%MOIN*%
%TF.SameCoordinates,31C44E49-19BD-49CD-A116-05C5AD78183A*%
%TF.FilePolarity,Positive*%
%TF.FileFunction,Drawing*%
%TF.Part,Single*%
G01*
G75*
%TA.AperFunction,NonConductor*%
%ADD34C,0.005000*%
%ADD35C,0.006667*%
D34*
X45000Y65000D02*
Y105000D01*
X85000D01*
Y65000D01*
X45000D01*
X815000D02*
Y105000D01*
X855000D01*
Y65000D01*
X815000D01*
X170000Y315000D02*
X150000Y355000D01*
X190000D01*
X170000Y315000D01*
X725118D02*
X705118Y355000D01*
X745118D01*
X725118Y315000D01*
X175000Y1360000D02*
X155000Y1400000D01*
X195000D01*
X175000Y1360000D01*
X730118D02*
X710118Y1400000D01*
X750118D01*
X730118Y1360000D01*
X345000Y515000D02*
X355000Y525000D01*
X365000D01*
X355000Y535000D01*
X365000Y545000D01*
X355000D01*
X345000Y555000D01*
X335000Y545000D01*
X325000D01*
X335000Y535000D01*
X325000Y525000D01*
X335000D01*
X345000Y515000D01*
D35*
X470000Y130000D02*
G03*
X470000Y130000I-20000J0D01*
G01*
Y1575000D02*
G03*
X470000Y1575000I-20000J0D01*
G01*
%TF.MD5,47b376cb9e21f32e9797c0b8dc8d53e0*%
M02*
