%TF.GenerationSoftware,Altium Limited,Altium Designer,22.4.2 (48)*%
G04 Layer_Color=8421504*
%FSLAX26Y26*%
%MOIN*%
%TF.SameCoordinates,31C44E49-19BD-49CD-A116-05C5AD78183A*%
%TF.FilePolarity,Positive*%
%TF.FileFunction,Paste,Top*%
%TF.Part,Single*%
G01*
G75*
%TA.AperFunction,SMDPad,CuDef*%
%ADD10R,0.100000X0.068000*%
G36*
X500512Y1012559D02*
X439488D01*
Y1063780D01*
X500512D01*
Y1012559D01*
D02*
G37*
G36*
X750512Y1008779D02*
X689488D01*
Y1060000D01*
X750512D01*
Y1008779D01*
D02*
G37*
G36*
X235512D02*
X174488D01*
Y1060000D01*
X235512D01*
Y1008779D01*
D02*
G37*
G36*
X750512Y712559D02*
X689488D01*
Y763779D01*
X750512D01*
Y712559D01*
D02*
G37*
G36*
X235512D02*
X174488D01*
Y763779D01*
X235512D01*
Y712559D01*
D02*
G37*
G36*
X500512Y698779D02*
X439488D01*
Y750000D01*
X500512D01*
Y698779D01*
D02*
G37*
D10*
X720000Y643780D02*
D03*
Y818780D02*
D03*
X470000D02*
D03*
Y643780D02*
D03*
X205000D02*
D03*
Y818780D02*
D03*
X720000Y1128780D02*
D03*
Y953780D02*
D03*
X470000Y943780D02*
D03*
Y1118780D02*
D03*
X205000Y1128780D02*
D03*
Y953780D02*
D03*
%TF.MD5,aa74abb64c3c1c24bf517880d5119588*%
M02*
