%TF.GenerationSoftware,Altium Limited,Altium Designer,22.4.2 (48)*%
G04 Layer_Color=8388736*
%FSLAX26Y26*%
%MOIN*%
%TF.SameCoordinates,B812F889-C0D6-4E0A-92BC-1FC44A6A00D5*%
%TF.FilePolarity,Negative*%
%TF.FileFunction,Soldermask,Top*%
%TF.Part,Single*%
G01*
G75*
%TA.AperFunction,SMDPad,CuDef*%
%ADD19R,0.076000X0.108000*%
%TA.AperFunction,ViaPad*%
%ADD20C,0.068000*%
%TA.AperFunction,ComponentPad*%
%ADD21C,0.072961*%
%ADD22R,0.072961X0.072961*%
%TA.AperFunction,ViaPad*%
%ADD23C,0.126110*%
G36*
X502964Y310077D02*
X503478Y309974D01*
X503975Y309806D01*
X504445Y309574D01*
X504881Y309283D01*
X505275Y308937D01*
X505621Y308543D01*
X505912Y308107D01*
X506144Y307636D01*
X506313Y307140D01*
X506415Y306626D01*
X506450Y306102D01*
Y245079D01*
X506415Y244556D01*
X506313Y244041D01*
X506144Y243545D01*
X505912Y243075D01*
X505621Y242638D01*
X505275Y242244D01*
X504881Y241899D01*
X504445Y241607D01*
X503975Y241375D01*
X503478Y241207D01*
X502964Y241105D01*
X502441Y241070D01*
X451220D01*
X450697Y241105D01*
X450183Y241207D01*
X449686Y241375D01*
X449216Y241607D01*
X448780Y241899D01*
X448386Y242244D01*
X448040Y242638D01*
X447749Y243075D01*
X447517Y243545D01*
X447348Y244041D01*
X447246Y244556D01*
X447212Y245079D01*
Y306102D01*
X447246Y306626D01*
X447348Y307140D01*
X447517Y307636D01*
X447749Y308107D01*
X448040Y308543D01*
X448386Y308937D01*
X448780Y309283D01*
X449216Y309574D01*
X449686Y309806D01*
X450183Y309974D01*
X450697Y310077D01*
X451220Y310111D01*
X502441D01*
X502964Y310077D01*
D02*
G37*
G36*
X306114Y782518D02*
X306628Y782415D01*
X307125Y782247D01*
X307595Y782015D01*
X308031Y781723D01*
X308425Y781378D01*
X308771Y780984D01*
X309062Y780548D01*
X309294Y780077D01*
X309463Y779581D01*
X309565Y779067D01*
X309599Y778543D01*
Y717520D01*
X309565Y716996D01*
X309463Y716482D01*
X309294Y715986D01*
X309062Y715515D01*
X308771Y715079D01*
X308425Y714685D01*
X308031Y714340D01*
X307595Y714048D01*
X307125Y713816D01*
X306628Y713648D01*
X306114Y713545D01*
X305591Y713511D01*
X254370D01*
X253847Y713545D01*
X253333Y713648D01*
X252836Y713816D01*
X252366Y714048D01*
X251930Y714340D01*
X251536Y714685D01*
X251190Y715079D01*
X250899Y715515D01*
X250667Y715986D01*
X250498Y716482D01*
X250396Y716996D01*
X250362Y717520D01*
Y778543D01*
X250396Y779067D01*
X250498Y779581D01*
X250667Y780077D01*
X250899Y780548D01*
X251190Y780984D01*
X251536Y781378D01*
X251930Y781723D01*
X252366Y782015D01*
X252836Y782247D01*
X253333Y782415D01*
X253847Y782518D01*
X254370Y782552D01*
X305591D01*
X306114Y782518D01*
D02*
G37*
G36*
X494185Y1254958D02*
X494699Y1254856D01*
X495195Y1254688D01*
X495666Y1254456D01*
X496102Y1254164D01*
X496496Y1253819D01*
X496842Y1253425D01*
X497133Y1252988D01*
X497365Y1252518D01*
X497533Y1252022D01*
X497636Y1251507D01*
X497670Y1250984D01*
Y1189961D01*
X497636Y1189437D01*
X497533Y1188923D01*
X497365Y1188427D01*
X497133Y1187956D01*
X496842Y1187520D01*
X496496Y1187126D01*
X496102Y1186780D01*
X495666Y1186489D01*
X495195Y1186257D01*
X494699Y1186089D01*
X494185Y1185986D01*
X493661Y1185952D01*
X442441D01*
X441918Y1185986D01*
X441403Y1186089D01*
X440907Y1186257D01*
X440437Y1186489D01*
X440001Y1186780D01*
X439606Y1187126D01*
X439261Y1187520D01*
X438969Y1187956D01*
X438737Y1188427D01*
X438569Y1188923D01*
X438467Y1189437D01*
X438432Y1189961D01*
Y1250984D01*
X438467Y1251507D01*
X438569Y1252022D01*
X438737Y1252518D01*
X438969Y1252988D01*
X439261Y1253425D01*
X439606Y1253819D01*
X440001Y1254164D01*
X440437Y1254456D01*
X440907Y1254688D01*
X441403Y1254856D01*
X441918Y1254958D01*
X442441Y1254993D01*
X493661D01*
X494185Y1254958D01*
D02*
G37*
G36*
X1054145Y310077D02*
X1054659Y309974D01*
X1055156Y309806D01*
X1055626Y309574D01*
X1056062Y309283D01*
X1056457Y308937D01*
X1056802Y308543D01*
X1057093Y308107D01*
X1057325Y307636D01*
X1057494Y307140D01*
X1057596Y306626D01*
X1057631Y306102D01*
Y245079D01*
X1057596Y244556D01*
X1057494Y244041D01*
X1057325Y243545D01*
X1057093Y243075D01*
X1056802Y242638D01*
X1056457Y242244D01*
X1056062Y241899D01*
X1055626Y241607D01*
X1055156Y241375D01*
X1054659Y241207D01*
X1054145Y241105D01*
X1053622Y241070D01*
X1002402D01*
X1001878Y241105D01*
X1001364Y241207D01*
X1000867Y241375D01*
X1000397Y241607D01*
X999961Y241899D01*
X999567Y242244D01*
X999221Y242638D01*
X998930Y243075D01*
X998698Y243545D01*
X998529Y244041D01*
X998427Y244556D01*
X998393Y245079D01*
Y306102D01*
X998427Y306626D01*
X998529Y307140D01*
X998698Y307636D01*
X998930Y308107D01*
X999221Y308543D01*
X999567Y308937D01*
X999961Y309283D01*
X1000397Y309574D01*
X1000867Y309806D01*
X1001364Y309974D01*
X1001878Y310077D01*
X1002402Y310111D01*
X1053622D01*
X1054145Y310077D01*
D02*
G37*
G36*
X1290366Y782518D02*
X1290880Y782415D01*
X1291377Y782247D01*
X1291847Y782015D01*
X1292283Y781723D01*
X1292677Y781378D01*
X1293023Y780984D01*
X1293314Y780548D01*
X1293546Y780077D01*
X1293715Y779581D01*
X1293817Y779067D01*
X1293851Y778543D01*
Y717520D01*
X1293817Y716996D01*
X1293715Y716482D01*
X1293546Y715986D01*
X1293314Y715515D01*
X1293023Y715079D01*
X1292677Y714685D01*
X1292283Y714340D01*
X1291847Y714048D01*
X1291377Y713816D01*
X1290880Y713648D01*
X1290366Y713545D01*
X1289842Y713511D01*
X1238622D01*
X1238099Y713545D01*
X1237584Y713648D01*
X1237088Y713816D01*
X1236618Y714048D01*
X1236182Y714340D01*
X1235787Y714685D01*
X1235442Y715079D01*
X1235150Y715515D01*
X1234918Y715986D01*
X1234750Y716482D01*
X1234648Y716996D01*
X1234613Y717520D01*
Y778543D01*
X1234648Y779067D01*
X1234750Y779581D01*
X1234918Y780077D01*
X1235150Y780548D01*
X1235442Y780984D01*
X1235787Y781378D01*
X1236182Y781723D01*
X1236618Y782015D01*
X1237088Y782247D01*
X1237584Y782415D01*
X1238099Y782518D01*
X1238622Y782552D01*
X1289842D01*
X1290366Y782518D01*
D02*
G37*
G36*
X1045366Y1254958D02*
X1045880Y1254856D01*
X1046377Y1254688D01*
X1046847Y1254456D01*
X1047283Y1254164D01*
X1047677Y1253819D01*
X1048023Y1253425D01*
X1048314Y1252988D01*
X1048546Y1252518D01*
X1048715Y1252022D01*
X1048817Y1251507D01*
X1048851Y1250984D01*
Y1189961D01*
X1048817Y1189437D01*
X1048715Y1188923D01*
X1048546Y1188427D01*
X1048314Y1187956D01*
X1048023Y1187520D01*
X1047677Y1187126D01*
X1047283Y1186780D01*
X1046847Y1186489D01*
X1046377Y1186257D01*
X1045880Y1186089D01*
X1045366Y1185986D01*
X1044842Y1185952D01*
X993622D01*
X993099Y1185986D01*
X992585Y1186089D01*
X992088Y1186257D01*
X991618Y1186489D01*
X991182Y1186780D01*
X990788Y1187126D01*
X990442Y1187520D01*
X990150Y1187956D01*
X989918Y1188427D01*
X989750Y1188923D01*
X989648Y1189437D01*
X989613Y1189961D01*
Y1250984D01*
X989648Y1251507D01*
X989750Y1252022D01*
X989918Y1252518D01*
X990150Y1252988D01*
X990442Y1253425D01*
X990788Y1253819D01*
X991182Y1254164D01*
X991618Y1254456D01*
X992088Y1254688D01*
X992585Y1254856D01*
X993099Y1254958D01*
X993622Y1254993D01*
X1044842D01*
X1045366Y1254958D01*
D02*
G37*
D19*
X1113622Y1220472D02*
D03*
X938622D02*
D03*
X1169842Y748032D02*
D03*
X1344842D02*
D03*
X933622Y275590D02*
D03*
X1108622D02*
D03*
X382440D02*
D03*
X557440D02*
D03*
X185590Y748032D02*
D03*
X360590D02*
D03*
X562440Y1220472D02*
D03*
X387440D02*
D03*
D20*
X275590Y511812D02*
D03*
X1259842D02*
D03*
D21*
X590552Y1027560D02*
D03*
X905512D02*
D03*
D22*
X590552Y472440D02*
D03*
X905512D02*
D03*
D23*
X748032Y748032D02*
D03*
%TF.MD5,aa7b0b7016967c1ca932f67f19f1c110*%
M02*
