G04*
G04 #@! TF.GenerationSoftware,Altium Limited,Altium Designer,22.4.2 (48)*
G04*
G04 Layer_Color=255*
%FSLAX25Y25*%
%MOIN*%
G70*
G04*
G04 #@! TF.SameCoordinates,0E8DA4FA-9BE3-492D-A222-2DD50D09E5F4*
G04*
G04*
G04 #@! TF.FilePolarity,Positive*
G04*
G01*
G75*
%ADD36C,0.05500*%
%ADD71C,0.05512*%
%ADD72C,0.20000*%
G04:AMPARAMS|DCode=73|XSize=51.18mil|YSize=51.18mil|CornerRadius=12.8mil|HoleSize=0mil|Usage=FLASHONLY|Rotation=90.000|XOffset=0mil|YOffset=0mil|HoleType=Round|Shape=RoundedRectangle|*
%AMROUNDEDRECTD73*
21,1,0.05118,0.02559,0,0,90.0*
21,1,0.02559,0.05118,0,0,90.0*
1,1,0.02559,0.01280,0.01280*
1,1,0.02559,0.01280,-0.01280*
1,1,0.02559,-0.01280,-0.01280*
1,1,0.02559,-0.01280,0.01280*
%
%ADD73ROUNDEDRECTD73*%
%ADD74C,0.05118*%
%ADD75C,0.08268*%
%ADD76C,0.06201*%
%ADD77R,0.07677X0.07677*%
%ADD78C,0.07677*%
%ADD79C,0.04528*%
%ADD80R,0.04528X0.04528*%
%ADD81C,0.06496*%
%ADD82R,0.06496X0.06496*%
G04:AMPARAMS|DCode=83|XSize=55.12mil|YSize=55.12mil|CornerRadius=13.78mil|HoleSize=0mil|Usage=FLASHONLY|Rotation=0.000|XOffset=0mil|YOffset=0mil|HoleType=Round|Shape=RoundedRectangle|*
%AMROUNDEDRECTD83*
21,1,0.05512,0.02756,0,0,0.0*
21,1,0.02756,0.05512,0,0,0.0*
1,1,0.02756,0.01378,-0.01378*
1,1,0.02756,-0.01378,-0.01378*
1,1,0.02756,-0.01378,0.01378*
1,1,0.02756,0.01378,0.01378*
%
%ADD83ROUNDEDRECTD83*%
G04:AMPARAMS|DCode=84|XSize=64.96mil|YSize=64.96mil|CornerRadius=16.24mil|HoleSize=0mil|Usage=FLASHONLY|Rotation=0.000|XOffset=0mil|YOffset=0mil|HoleType=Round|Shape=RoundedRectangle|*
%AMROUNDEDRECTD84*
21,1,0.06496,0.03248,0,0,0.0*
21,1,0.03248,0.06496,0,0,0.0*
1,1,0.03248,0.01624,-0.01624*
1,1,0.03248,-0.01624,-0.01624*
1,1,0.03248,-0.01624,0.01624*
1,1,0.03248,0.01624,0.01624*
%
%ADD84ROUNDEDRECTD84*%
%ADD85C,0.09213*%
%ADD86R,0.09213X0.09213*%
%ADD87R,0.07677X0.07677*%
%ADD88R,0.04563X0.04563*%
%ADD89C,0.04563*%
G04:AMPARAMS|DCode=90|XSize=51.18mil|YSize=51.18mil|CornerRadius=12.8mil|HoleSize=0mil|Usage=FLASHONLY|Rotation=0.000|XOffset=0mil|YOffset=0mil|HoleType=Round|Shape=RoundedRectangle|*
%AMROUNDEDRECTD90*
21,1,0.05118,0.02559,0,0,0.0*
21,1,0.02559,0.05118,0,0,0.0*
1,1,0.02559,0.01280,-0.01280*
1,1,0.02559,-0.01280,-0.01280*
1,1,0.02559,-0.01280,0.01280*
1,1,0.02559,0.01280,0.01280*
%
%ADD90ROUNDEDRECTD90*%
%ADD91C,0.05878*%
%ADD92R,0.07559X0.07559*%
%ADD93C,0.07559*%
%ADD94C,0.07500*%
%ADD95C,0.04661*%
%ADD96R,0.04661X0.04661*%
G04:AMPARAMS|DCode=97|XSize=76.77mil|YSize=76.77mil|CornerRadius=19.19mil|HoleSize=0mil|Usage=FLASHONLY|Rotation=270.000|XOffset=0mil|YOffset=0mil|HoleType=Round|Shape=RoundedRectangle|*
%AMROUNDEDRECTD97*
21,1,0.07677,0.03839,0,0,270.0*
21,1,0.03839,0.07677,0,0,270.0*
1,1,0.03839,-0.01919,-0.01919*
1,1,0.03839,-0.01919,0.01919*
1,1,0.03839,0.01919,0.01919*
1,1,0.03839,0.01919,-0.01919*
%
%ADD97ROUNDEDRECTD97*%
%ADD98R,0.04528X0.04528*%
%ADD99C,0.05906*%
%ADD100R,0.05906X0.05906*%
D36*
X212500Y185000D02*
D03*
Y195000D02*
D03*
Y205000D02*
D03*
Y215000D02*
D03*
Y225000D02*
D03*
X222500D02*
D03*
Y215000D02*
D03*
Y205000D02*
D03*
Y195000D02*
D03*
Y185000D02*
D03*
X97500Y87500D02*
D03*
Y97500D02*
D03*
Y107500D02*
D03*
Y117500D02*
D03*
Y127500D02*
D03*
X247500Y72500D02*
D03*
Y82500D02*
D03*
Y92500D02*
D03*
X237500D02*
D03*
Y82500D02*
D03*
Y72500D02*
D03*
D71*
X95945Y170925D02*
D03*
X114055Y224075D02*
D03*
X265157Y265000D02*
D03*
D72*
X20000Y380000D02*
D03*
X380000D02*
D03*
Y60000D02*
D03*
X20000D02*
D03*
D73*
X77500Y178937D02*
D03*
X235000Y258937D02*
D03*
D74*
X77500Y171063D02*
D03*
X235000Y251063D02*
D03*
X285000Y190000D02*
D03*
D75*
X39921Y310000D02*
D03*
X100000D02*
D03*
X119843D02*
D03*
X139685D02*
D03*
Y280472D02*
D03*
X119843D02*
D03*
X100000D02*
D03*
X39921D02*
D03*
D76*
X350000Y310000D02*
D03*
X340000D02*
D03*
X330000D02*
D03*
D77*
X70000Y360000D02*
D03*
X130000D02*
D03*
D78*
X50000D02*
D03*
X110000D02*
D03*
X360000Y120000D02*
D03*
Y280000D02*
D03*
X26319Y157500D02*
D03*
Y172500D02*
D03*
X68780Y65000D02*
D03*
X55000D02*
D03*
X26319Y217500D02*
D03*
Y232500D02*
D03*
Y95000D02*
D03*
Y110000D02*
D03*
D79*
X168937Y270000D02*
D03*
X207500Y130000D02*
D03*
D80*
X215000Y270000D02*
D03*
D81*
X20000Y340000D02*
D03*
X240315D02*
D03*
D82*
X20000Y284488D02*
D03*
D83*
X284843Y265000D02*
D03*
D84*
X279685Y340000D02*
D03*
D85*
X170000Y379528D02*
D03*
Y350000D02*
D03*
Y320472D02*
D03*
X200000Y379528D02*
D03*
Y350000D02*
D03*
Y320472D02*
D03*
D86*
X170000Y290945D02*
D03*
X200000D02*
D03*
D87*
X360000Y100000D02*
D03*
Y260000D02*
D03*
D88*
X252126Y160000D02*
D03*
D89*
Y150000D02*
D03*
Y140000D02*
D03*
Y130000D02*
D03*
X282874D02*
D03*
Y140000D02*
D03*
Y150000D02*
D03*
Y160000D02*
D03*
D90*
X292874Y190000D02*
D03*
D91*
X359764Y150000D02*
D03*
X370000D02*
D03*
X380236D02*
D03*
Y182500D02*
D03*
X370000D02*
D03*
X359764D02*
D03*
Y215000D02*
D03*
X370000D02*
D03*
X380236D02*
D03*
X59803Y210807D02*
D03*
Y221043D02*
D03*
Y231280D02*
D03*
D92*
X380000Y340000D02*
D03*
D93*
Y330000D02*
D03*
Y320000D02*
D03*
D94*
X317500Y282500D02*
D03*
X327500D02*
D03*
Y252500D02*
D03*
X317500D02*
D03*
D95*
X185748Y247500D02*
D03*
Y237500D02*
D03*
Y227500D02*
D03*
Y217500D02*
D03*
Y207500D02*
D03*
Y197500D02*
D03*
Y187500D02*
D03*
Y177500D02*
D03*
Y167500D02*
D03*
Y157500D02*
D03*
Y147500D02*
D03*
Y137500D02*
D03*
Y127500D02*
D03*
Y117500D02*
D03*
Y107500D02*
D03*
Y97500D02*
D03*
Y87500D02*
D03*
Y77500D02*
D03*
Y67500D02*
D03*
Y57500D02*
D03*
X125000D02*
D03*
Y67500D02*
D03*
Y77500D02*
D03*
Y87500D02*
D03*
Y97500D02*
D03*
Y107500D02*
D03*
Y117500D02*
D03*
Y127500D02*
D03*
Y137500D02*
D03*
Y147500D02*
D03*
Y157500D02*
D03*
Y167500D02*
D03*
Y177500D02*
D03*
Y187500D02*
D03*
Y197500D02*
D03*
Y207500D02*
D03*
Y217500D02*
D03*
Y227500D02*
D03*
Y237500D02*
D03*
D96*
Y247500D02*
D03*
D97*
X26319Y187500D02*
D03*
Y247500D02*
D03*
Y125000D02*
D03*
D98*
X207500Y83937D02*
D03*
D99*
X67500Y127500D02*
D03*
Y117500D02*
D03*
Y107500D02*
D03*
D100*
Y97500D02*
D03*
M02*
