%TF.GenerationSoftware,Altium Limited,Altium Designer,22.4.2 (48)*%
G04 Layer_Physical_Order=1*
G04 Layer_Color=255*
%FSLAX26Y26*%
%MOIN*%
%TF.SameCoordinates,DD4E5991-19CE-4C14-B0C1-6D61C62B9851*%
%TF.FilePolarity,Positive*%
%TF.FileFunction,Copper,L1,Top,Signal*%
%TF.Part,Single*%
G01*
G75*
%TA.AperFunction,SMDPad,CuDef*%
%ADD10R,0.036417X0.084646*%
%ADD11R,0.035433X0.051181*%
%ADD12R,0.039370X0.057087*%
%ADD13R,0.037402X0.057087*%
G04:AMPARAMS|DCode=14|XSize=37.008mil|YSize=69.685mil|CornerRadius=2.59mil|HoleSize=0mil|Usage=FLASHONLY|Rotation=270.000|XOffset=0mil|YOffset=0mil|HoleType=Round|Shape=RoundedRectangle|*
%AMROUNDEDRECTD14*
21,1,0.037008,0.064504,0,0,270.0*
21,1,0.031827,0.069685,0,0,270.0*
1,1,0.005181,-0.032252,-0.015914*
1,1,0.005181,-0.032252,0.015914*
1,1,0.005181,0.032252,0.015914*
1,1,0.005181,0.032252,-0.015914*
%
%ADD14ROUNDEDRECTD14*%
G04:AMPARAMS|DCode=15|XSize=42.913mil|YSize=69.685mil|CornerRadius=3.004mil|HoleSize=0mil|Usage=FLASHONLY|Rotation=270.000|XOffset=0mil|YOffset=0mil|HoleType=Round|Shape=RoundedRectangle|*
%AMROUNDEDRECTD15*
21,1,0.042913,0.063677,0,0,270.0*
21,1,0.036906,0.069685,0,0,270.0*
1,1,0.006008,-0.031839,-0.018453*
1,1,0.006008,-0.031839,0.018453*
1,1,0.006008,0.031839,0.018453*
1,1,0.006008,0.031839,-0.018453*
%
%ADD15ROUNDEDRECTD15*%
%ADD16R,0.054724X0.032677*%
%ADD17R,0.032677X0.054724*%
%TA.AperFunction,Conductor*%
%ADD18C,0.050000*%
%ADD19C,0.025000*%
%ADD20C,0.040000*%
%ADD21C,0.035000*%
%TA.AperFunction,NonConductor*%
%ADD22C,0.012000*%
%TA.AperFunction,ComponentPad*%
%ADD23C,0.055118*%
%TA.AperFunction,ViaPad*%
%ADD24C,0.200000*%
%TA.AperFunction,ComponentPad*%
%ADD25C,0.055000*%
G04:AMPARAMS|DCode=26|XSize=51.181mil|YSize=51.181mil|CornerRadius=12.795mil|HoleSize=0mil|Usage=FLASHONLY|Rotation=90.000|XOffset=0mil|YOffset=0mil|HoleType=Round|Shape=RoundedRectangle|*
%AMROUNDEDRECTD26*
21,1,0.051181,0.025591,0,0,90.0*
21,1,0.025591,0.051181,0,0,90.0*
1,1,0.025590,0.012795,0.012795*
1,1,0.025590,0.012795,-0.012795*
1,1,0.025590,-0.012795,-0.012795*
1,1,0.025590,-0.012795,0.012795*
%
%ADD26ROUNDEDRECTD26*%
%ADD27C,0.051181*%
%ADD28C,0.082677*%
%ADD29C,0.062008*%
%ADD30R,0.076772X0.076772*%
%ADD31C,0.076772*%
%ADD32C,0.045276*%
%ADD33R,0.045276X0.045276*%
%ADD34C,0.064961*%
%ADD35R,0.064961X0.064961*%
G04:AMPARAMS|DCode=36|XSize=55.118mil|YSize=55.118mil|CornerRadius=13.78mil|HoleSize=0mil|Usage=FLASHONLY|Rotation=0.000|XOffset=0mil|YOffset=0mil|HoleType=Round|Shape=RoundedRectangle|*
%AMROUNDEDRECTD36*
21,1,0.055118,0.027559,0,0,0.0*
21,1,0.027559,0.055118,0,0,0.0*
1,1,0.027559,0.013780,-0.013780*
1,1,0.027559,-0.013780,-0.013780*
1,1,0.027559,-0.013780,0.013780*
1,1,0.027559,0.013780,0.013780*
%
%ADD36ROUNDEDRECTD36*%
G04:AMPARAMS|DCode=37|XSize=64.961mil|YSize=64.961mil|CornerRadius=16.24mil|HoleSize=0mil|Usage=FLASHONLY|Rotation=0.000|XOffset=0mil|YOffset=0mil|HoleType=Round|Shape=RoundedRectangle|*
%AMROUNDEDRECTD37*
21,1,0.064961,0.032480,0,0,0.0*
21,1,0.032480,0.064961,0,0,0.0*
1,1,0.032480,0.016240,-0.016240*
1,1,0.032480,-0.016240,-0.016240*
1,1,0.032480,-0.016240,0.016240*
1,1,0.032480,0.016240,0.016240*
%
%ADD37ROUNDEDRECTD37*%
%ADD38C,0.092126*%
%ADD39R,0.092126X0.092126*%
%ADD40R,0.076772X0.076772*%
%ADD41R,0.045630X0.045630*%
%ADD42C,0.045630*%
G04:AMPARAMS|DCode=43|XSize=51.181mil|YSize=51.181mil|CornerRadius=12.795mil|HoleSize=0mil|Usage=FLASHONLY|Rotation=0.000|XOffset=0mil|YOffset=0mil|HoleType=Round|Shape=RoundedRectangle|*
%AMROUNDEDRECTD43*
21,1,0.051181,0.025591,0,0,0.0*
21,1,0.025591,0.051181,0,0,0.0*
1,1,0.025590,0.012795,-0.012795*
1,1,0.025590,-0.012795,-0.012795*
1,1,0.025590,-0.012795,0.012795*
1,1,0.025590,0.012795,0.012795*
%
%ADD43ROUNDEDRECTD43*%
%ADD44C,0.058779*%
%ADD45R,0.075591X0.075591*%
%ADD46C,0.075591*%
%ADD47C,0.075000*%
%ADD48C,0.046614*%
%ADD49R,0.046614X0.046614*%
G04:AMPARAMS|DCode=50|XSize=76.772mil|YSize=76.772mil|CornerRadius=19.193mil|HoleSize=0mil|Usage=FLASHONLY|Rotation=270.000|XOffset=0mil|YOffset=0mil|HoleType=Round|Shape=RoundedRectangle|*
%AMROUNDEDRECTD50*
21,1,0.076772,0.038386,0,0,270.0*
21,1,0.038386,0.076772,0,0,270.0*
1,1,0.038386,-0.019193,-0.019193*
1,1,0.038386,-0.019193,0.019193*
1,1,0.038386,0.019193,0.019193*
1,1,0.038386,0.019193,-0.019193*
%
%ADD50ROUNDEDRECTD50*%
%ADD51R,0.045276X0.045276*%
%ADD52C,0.059055*%
%ADD53R,0.059055X0.059055*%
%TA.AperFunction,ViaPad*%
%ADD54C,0.050000*%
D10*
X3319000Y627000D02*
D03*
X3259000D02*
D03*
X3515000D02*
D03*
X3455000D02*
D03*
X3345000Y1775000D02*
D03*
X3405000D02*
D03*
D11*
X3275496Y1355000D02*
D03*
X3200692D02*
D03*
X3275496Y1583000D02*
D03*
X3200692D02*
D03*
X862402Y2075000D02*
D03*
X787598D02*
D03*
X2537598Y1875000D02*
D03*
X2612402D02*
D03*
X2537598Y2175000D02*
D03*
X2612402D02*
D03*
X2837598D02*
D03*
X2912402D02*
D03*
X787598Y2275000D02*
D03*
X862402D02*
D03*
X512598Y1600000D02*
D03*
X587402D02*
D03*
X2112402Y625000D02*
D03*
X2037598D02*
D03*
D12*
X1587402Y2700000D02*
D03*
X1512598D02*
D03*
X2412598Y2775000D02*
D03*
X2487402D02*
D03*
X2976582Y1583000D02*
D03*
X3051386D02*
D03*
X2843402Y987000D02*
D03*
X2768598D02*
D03*
X2762598Y613220D02*
D03*
X2837402D02*
D03*
X987598Y2525000D02*
D03*
X1062402D02*
D03*
X562598D02*
D03*
X637402D02*
D03*
D13*
X3264370Y1925000D02*
D03*
X3185630D02*
D03*
X2973630Y1357000D02*
D03*
X3052370D02*
D03*
X3200630Y1126000D02*
D03*
X3279370D02*
D03*
X3200630Y903000D02*
D03*
X3279370D02*
D03*
D14*
X3030640Y603182D02*
D03*
Y1026370D02*
D03*
D15*
Y721490D02*
D03*
Y1144678D02*
D03*
D16*
X3400000Y1432284D02*
D03*
Y1500000D02*
D03*
D17*
X3258858Y2150000D02*
D03*
X3191142D02*
D03*
X583858Y1800000D02*
D03*
X516142D02*
D03*
X2216142Y1475000D02*
D03*
X2283858D02*
D03*
Y1275000D02*
D03*
X2216142D02*
D03*
X833858Y2525000D02*
D03*
X766142D02*
D03*
D18*
X3175000D02*
X3179784Y2529784D01*
Y2565784D01*
X3400000Y2786000D02*
Y3100000D01*
X3179784Y2565784D02*
X3400000Y2786000D01*
X2789370Y3392520D02*
X2796850Y3400000D01*
X2237000Y2606187D02*
Y3178000D01*
X2403150Y3344150D01*
Y3400000D01*
X2237000Y2606187D02*
X2332331Y2510856D01*
X2349774D01*
X2350000Y2510630D01*
X1100000Y3198426D02*
Y3600000D01*
Y3198426D02*
X1198426Y3100000D01*
X1300000Y2906298D02*
Y3600000D01*
X1198426Y2804724D02*
X1300000Y2906298D01*
X3275000Y2525000D02*
X3550000Y2800000D01*
X3600000D01*
X3597638Y1927362D02*
Y2150000D01*
Y1927362D02*
X3700000Y1825000D01*
X2776574Y2525000D02*
X3175000D01*
X2651574Y2650000D02*
X2776574Y2525000D01*
X500000Y3304724D02*
Y3600000D01*
Y3304724D02*
X1000000Y2804724D01*
X700000Y3400000D02*
Y3600000D01*
Y3400000D02*
X1000000Y3100000D01*
X3400000D02*
Y3400000D01*
X3800000Y3800000D01*
X3700000Y1500000D02*
Y1825000D01*
X3802362Y1500000D02*
Y1825000D01*
D19*
X3795000Y2297000D02*
X3866000Y2226000D01*
Y1888638D02*
Y2226000D01*
X3802362Y1825000D02*
X3866000Y1888638D01*
X3580000Y2297000D02*
X3795000D01*
X3474000Y2191000D02*
X3580000Y2297000D01*
X3345000Y1775000D02*
X3350709Y1769291D01*
X3365645Y1684000D02*
X3459355D01*
X3350709Y1730824D02*
Y1769291D01*
Y1730824D02*
X3351000Y1730532D01*
Y1698645D02*
Y1730532D01*
Y1698645D02*
X3365645Y1684000D01*
X3185630Y1801370D02*
X3316000Y1671000D01*
Y1163370D02*
Y1671000D01*
X3474000Y1698645D02*
Y2191000D01*
X3459355Y1684000D02*
X3474000Y1698645D01*
X3175000Y2525000D02*
X3258858Y2441142D01*
Y2200000D02*
Y2441142D01*
X3144000Y1784496D02*
X3275496Y1653000D01*
Y1583000D02*
Y1653000D01*
Y1355000D02*
Y1583000D01*
X3316370Y1163000D02*
X3353370Y1200000D01*
X3185630Y1801370D02*
Y1925000D01*
X3144000Y1784496D02*
Y2269598D01*
X3275496Y1298496D02*
Y1355000D01*
X3462874Y559000D02*
X3800000D01*
X3462874D02*
Y627000D01*
X2679000Y2152000D02*
X2837598D01*
X3455000Y627000D02*
X3462874D01*
X3319000D02*
X3455000D01*
X3311126D02*
X3319000D01*
X2961000Y1292370D02*
X2973630Y1305000D01*
X2961000Y1206000D02*
Y1292370D01*
X3264370Y1925000D02*
X3267685Y1921685D01*
Y1847315D02*
X3271000Y1844000D01*
X3267685Y1847315D02*
Y1921685D01*
X3279370Y777370D02*
Y903000D01*
X3176500Y674500D02*
X3279370Y777370D01*
X2966500Y674500D02*
X3176500D01*
X300188Y1838000D02*
X516142D01*
Y1850000D01*
X3258858Y2150000D02*
Y2200000D01*
X3144000Y2269598D02*
X3189260D01*
X2900000D02*
X3144000D01*
X2837598Y2043402D02*
Y2152000D01*
X3144000Y2269598D02*
Y2494000D01*
X787598Y2418695D02*
Y2462946D01*
Y2389000D02*
Y2418695D01*
Y2275000D02*
Y2389000D01*
Y2418695D02*
X819571Y2430973D01*
X766142Y2410456D02*
X787598Y2418695D01*
X2837402Y674500D02*
X2966500D01*
X2884000Y1565000D02*
X2976582D01*
X3118000Y596000D02*
X3266874D01*
X3051386Y1529000D02*
Y1583000D01*
Y1469984D02*
Y1529000D01*
X1196192Y2485808D02*
X1250000D01*
X3136000Y1347000D02*
X3200692D01*
X3036000Y1884000D02*
Y1951000D01*
Y1749000D02*
Y1884000D01*
X2944000Y627000D02*
X2967818Y603182D01*
X3030640D01*
X775000Y1789370D02*
X869446D01*
X874388Y1794312D01*
X1014592D01*
X1145280Y1925000D01*
X1271000D01*
X1296000Y1950000D01*
Y2000000D01*
X1271000Y2025000D02*
X1296000Y2000000D01*
X901402Y2025000D02*
X1271000D01*
X862402Y2064000D02*
X901402Y2025000D01*
X862402Y2064000D02*
Y2075000D01*
X399212Y2145212D02*
Y2804724D01*
X263188Y2009188D02*
X399212Y2145212D01*
X263188Y1875000D02*
Y2009188D01*
X896654Y2240748D02*
X1140552D01*
X862402Y2275000D02*
X896654Y2240748D01*
X3144000Y2494000D02*
X3175000Y2525000D01*
X2837598Y2043402D02*
X2850000Y1900000D01*
X108000Y2630188D02*
X263188Y2475000D01*
X108000Y2630188D02*
Y3708000D01*
X200000Y3800000D01*
X202000Y1636188D02*
X263188Y1575000D01*
X202000Y1636188D02*
Y2413812D01*
X263188Y2475000D01*
X766142Y2484402D02*
Y2525000D01*
Y2484402D02*
X787598Y2462946D01*
X520000Y2390828D02*
X598032Y2312796D01*
X520000Y2390828D02*
Y2618000D01*
X543000Y2641000D01*
X832000D01*
X873000Y2600000D01*
Y2484402D02*
Y2600000D01*
X819571Y2430973D02*
X873000Y2484402D01*
X766142Y2410456D02*
X787598Y2389000D01*
X2612402Y1516338D02*
X2828740Y1300000D01*
X2612402Y1516338D02*
Y1875000D01*
Y2175000D02*
Y2204598D01*
X2575000Y2242000D02*
X2612402Y2204598D01*
X2500000Y2242000D02*
X2575000D01*
X2390000Y2132000D02*
X2500000Y2242000D01*
X2390000Y2018000D02*
Y2132000D01*
X2272000Y1900000D02*
X2390000Y2018000D01*
X2200000Y1900000D02*
X2272000D01*
X2175000Y1875000D02*
X2200000Y1900000D01*
X2175000Y1825000D02*
Y1875000D01*
Y1825000D02*
X2449000Y1551000D01*
Y1472260D02*
Y1551000D01*
Y1472260D02*
X2521260Y1400000D01*
X2037598Y625000D02*
Y725402D01*
X2025000Y738000D02*
X2037598Y725402D01*
X2025000Y738000D02*
Y1250000D01*
X2075000Y1300000D01*
X3478000Y1129000D02*
X3507126Y1099874D01*
Y627000D02*
Y1099874D01*
X3051386Y1469984D02*
X3052370Y1357000D01*
X1250000Y1775000D02*
X1296000Y1729000D01*
Y750000D02*
Y1729000D01*
X1271000Y725000D02*
X1296000Y750000D01*
X762796Y725000D02*
X1271000D01*
X687796Y650000D02*
X762796Y725000D01*
X390000Y1956000D02*
X600000D01*
X689000Y2045000D01*
Y2411402D01*
X637402Y2463000D02*
X689000Y2411402D01*
X637402Y2463000D02*
Y2525000D01*
X2216142Y1275000D02*
Y1308858D01*
X2100000Y1425000D02*
X2216142Y1308858D01*
X1801000Y1425000D02*
X2100000D01*
X1776000Y1450000D02*
X1801000Y1425000D01*
X1776000Y1450000D02*
Y2075000D01*
X1822000Y2121000D01*
X1904000D01*
Y2021520D02*
Y2121000D01*
X1857480Y1975000D02*
X1904000Y2021520D01*
X2225000Y1950000D02*
X2275000Y2000000D01*
Y2348000D01*
X2148000Y2475000D02*
X2275000Y2348000D01*
X1857480Y2475000D02*
X2148000D01*
X3353370Y1200000D02*
X3600000D01*
X3400000Y1432284D02*
X3632284D01*
X3700000Y1500000D01*
X2912402Y2074598D02*
X3036000Y1951000D01*
X2912402Y2074598D02*
Y2175000D01*
X3215630Y967000D02*
X3424000D01*
X3200630Y903000D02*
X3215630Y967000D01*
X514000Y575000D02*
X1250000D01*
X489000Y600000D02*
X514000Y575000D01*
X489000Y600000D02*
Y1024188D01*
X263188Y1250000D02*
X489000Y1024188D01*
X1761480Y479000D02*
X1857480Y575000D01*
X552000Y479000D02*
X1761480D01*
X431000Y600000D02*
X552000Y479000D01*
X431000Y600000D02*
Y932188D01*
X263188Y1100000D02*
X431000Y932188D01*
X562598Y2464000D02*
Y2525000D01*
Y2464000D02*
X654000Y2372598D01*
Y2266402D02*
Y2372598D01*
X598032Y2210434D02*
X654000Y2266402D01*
X2837402Y613220D02*
Y674500D01*
X2909056Y731944D02*
X2966500Y674500D01*
X2909056Y731944D02*
Y1427944D01*
X2887000Y1450000D02*
X2909056Y1427944D01*
X1062402Y2455598D02*
X1093000Y2425000D01*
X1062402Y2455598D02*
Y2525000D01*
X3266874Y596000D02*
Y627000D01*
X3084000Y562000D02*
X3118000Y596000D01*
X2720000Y562000D02*
X3084000D01*
X2720000D02*
Y991000D01*
X2673000Y1038000D02*
X2720000Y991000D01*
X2673000Y1038000D02*
Y1278000D01*
X2700000Y1305000D01*
X2749000D01*
X2800000Y1254000D01*
X2874056D01*
Y1354684D01*
X2828740Y1400000D02*
X2874056Y1354684D01*
X1857480Y1575000D02*
X1947962D01*
X2125000Y1752038D01*
X550000Y650000D02*
X593000D01*
X850000Y907000D01*
Y1700312D01*
X909000Y1759312D01*
X1059682D01*
X1159866Y1859496D01*
X1234496D01*
X1250000Y1875000D01*
Y2475000D02*
Y2485808D01*
X1105000Y2577000D02*
X1196192Y2485808D01*
X1009000Y2577000D02*
X1105000D01*
X1009000Y2546402D02*
Y2577000D01*
X987598Y2525000D02*
X1009000Y2546402D01*
X1587402Y2700000D02*
Y2752000D01*
X1470000D02*
X1587402D01*
X1470000Y1991000D02*
Y2752000D01*
X1300000Y1821000D02*
X1470000Y1991000D01*
X1204000Y1821000D02*
X1300000D01*
X1204000Y1521000D02*
Y1821000D01*
Y1521000D02*
X1250000Y1475000D01*
X622000Y1222000D02*
X675000Y1275000D01*
X622000Y923000D02*
Y1222000D01*
Y923000D02*
X623000Y922000D01*
X750000D01*
X775000Y947000D01*
Y1710630D01*
X3200630Y1067000D02*
Y1126000D01*
X2283858Y1475000D02*
Y1593180D01*
X2125000Y1752038D02*
X2283858Y1593180D01*
X2125000Y1752038D02*
Y1850000D01*
X583858Y1750000D02*
Y1800000D01*
X558858Y1725000D02*
X583858Y1750000D01*
X263188Y1725000D02*
X558858D01*
X587402Y1600000D02*
Y1647402D01*
X631000Y1691000D01*
X2843402Y987000D02*
Y1084598D01*
X2721000Y1207000D02*
X2843402Y1084598D01*
X2019000Y1475000D02*
X2216142D01*
X1973000Y1521000D02*
X2019000Y1475000D01*
X1840000Y1521000D02*
X1973000D01*
X1811000Y1550000D02*
X1840000Y1521000D01*
X1811000Y1550000D02*
Y2028520D01*
X1857480Y2075000D01*
X3030640Y1026370D02*
X3134630D01*
X3144500Y1016500D01*
X3221870D01*
X3279370Y1074000D01*
Y1126000D01*
X1857480Y1975000D02*
X1950000D01*
X2125000Y2150000D01*
X2976582Y1565000D02*
Y1583000D01*
X2873000Y1554000D02*
X2884000Y1565000D01*
X2812000Y1554000D02*
X2873000D01*
X2783000Y1525000D02*
X2812000Y1554000D01*
X2783000Y1445740D02*
Y1525000D01*
Y1445740D02*
X2828740Y1400000D01*
X3200692Y1347000D02*
Y1355000D01*
X3094000Y1305000D02*
X3136000Y1347000D01*
X2973630Y1305000D02*
X3094000D01*
X2973630D02*
Y1357000D01*
X3191142Y2100000D02*
Y2150000D01*
Y2100000D02*
X3335000D01*
X3279370Y1126740D02*
X3316000Y1163370D01*
X3279370Y1126000D02*
Y1126740D01*
X2283858Y916142D02*
Y1275000D01*
Y916142D02*
X2375000Y825000D01*
Y925000D02*
X2425000Y875000D01*
Y800000D02*
Y875000D01*
X2400000Y775000D02*
X2425000Y800000D01*
X2187402Y775000D02*
X2400000D01*
X2112402Y700000D02*
X2187402Y775000D01*
X2112402Y625000D02*
Y700000D01*
X3030640Y1144678D02*
X3121678D01*
X3275496Y1298496D01*
X2828740Y1500000D02*
X3022386D01*
X3051386Y1529000D01*
X200000Y3299212D02*
Y3400000D01*
Y3299212D02*
X399212Y3100000D01*
X1140552Y2184448D02*
X1250000Y2075000D01*
X1140552Y2184448D02*
Y2240748D01*
X512598Y1437402D02*
Y1600000D01*
Y1437402D02*
X675000Y1275000D01*
X2828740Y1600000D02*
Y1800000D01*
X2928740Y1900000D01*
X925000Y1674804D02*
X959448Y1709252D01*
X925000Y950000D02*
Y1674804D01*
Y950000D02*
X950000Y925000D01*
X1200000D01*
X1250000Y875000D01*
X516142Y1800000D02*
Y1838000D01*
X263188Y1875000D02*
X300188Y1838000D01*
X850000Y1975000D02*
X1250000D01*
X787598Y2037402D02*
X850000Y1975000D01*
X787598Y2037402D02*
Y2075000D01*
X464000Y2242102D02*
X598032Y2108070D01*
X464000Y2242102D02*
Y3035212D01*
X399212Y3100000D02*
X464000Y3035212D01*
X726000Y1740370D02*
X775000Y1789370D01*
X726000Y1327000D02*
Y1740370D01*
Y1327000D02*
X728000Y1325000D01*
Y1028000D02*
Y1325000D01*
X675000Y975000D02*
X728000Y1028000D01*
X2521260Y1007000D02*
Y1300000D01*
Y1007000D02*
X2525000Y1003260D01*
Y775000D02*
Y1003260D01*
X2475000Y725000D02*
X2525000Y775000D01*
X3800000Y559000D02*
Y600000D01*
X200000D02*
Y1511812D01*
X263188Y1575000D01*
X3189260Y2269598D02*
X3258858Y2200000D01*
X2837598Y2207196D02*
X2900000Y2269598D01*
X2837598Y2175000D02*
Y2207196D01*
X2828740Y1600000D02*
X2863740Y1635000D01*
X3175000D01*
X3200692Y1609308D01*
Y1583000D02*
Y1609308D01*
X683630Y1789370D02*
X775000D01*
X623000Y1850000D02*
X683630Y1789370D01*
X516142Y1850000D02*
X623000D01*
X2537598Y1736000D02*
Y1875000D01*
Y1736000D02*
X2567000Y1706598D01*
Y1345740D02*
Y1706598D01*
X2521260Y1300000D02*
X2567000Y1345740D01*
X2837598Y2152000D02*
Y2175000D01*
X2653000Y2126000D02*
X2679000Y2152000D01*
X2537598Y2126000D02*
X2653000D01*
X2537598D02*
Y2175000D01*
X833858Y2525000D02*
Y2575000D01*
X803858Y2605000D02*
X833858Y2575000D01*
X592598Y2605000D02*
X803858D01*
X562598Y2575000D02*
X592598Y2605000D01*
X562598Y2525000D02*
Y2575000D01*
X1587402Y2700000D02*
X1616000D01*
X1662000Y2746000D01*
X2104000D01*
X2150000Y2700000D01*
X1512598Y2648000D02*
Y2700000D01*
Y2648000D02*
X1637370D01*
X1689370Y2700000D01*
X2283858Y1275000D02*
Y1475000D01*
X862402Y2075000D02*
Y2275000D01*
X2393000Y1875000D02*
X2537598D01*
X2368000Y1850000D02*
X2393000Y1875000D01*
X2225000Y1850000D02*
X2368000D01*
X2537598Y1875000D02*
Y2126000D01*
X400000Y1600000D02*
X512598D01*
X375000Y1575000D02*
X400000Y1600000D01*
X263188Y1575000D02*
X375000D01*
X787598Y2075000D02*
Y2275000D01*
X3030640Y721490D02*
Y1026370D01*
X2768598Y803000D02*
Y987000D01*
X2762598Y797000D02*
X2768598Y803000D01*
X2762598Y613220D02*
Y797000D01*
X3400000Y1500000D02*
X3597638D01*
D20*
X3692000Y3292000D02*
X3800000Y3400000D01*
X3692000Y2757000D02*
Y3292000D01*
X3642874Y2707874D02*
X3692000Y2757000D01*
X3563874Y2707874D02*
X3642874D01*
X3405000Y2549000D02*
X3563874Y2707874D01*
X3405000Y1775000D02*
Y2549000D01*
X2508000Y2795598D02*
Y3090741D01*
X2487402Y2775000D02*
X2508000Y2795598D01*
Y3090741D02*
X2789370Y3372110D01*
Y3392520D01*
D21*
X2412598Y2473598D02*
Y2775000D01*
X2311000Y2450000D02*
X2389000D01*
X2412598Y2473598D01*
X2150000Y2611000D02*
Y2700000D01*
Y2611000D02*
X2311000Y2450000D01*
D22*
X2251991Y508413D02*
X2246278Y514126D01*
X2237709Y516983D01*
X2226283D01*
X2217713Y514126D01*
X2212000Y508413D01*
Y502700D01*
X2214856Y496987D01*
X2217713Y494131D01*
X2223426Y491274D01*
X2240565Y485561D01*
X2246278Y482704D01*
X2249135Y479848D01*
X2251991Y474135D01*
Y465565D01*
X2246278Y459852D01*
X2237709Y456996D01*
X2226283D01*
X2217713Y459852D01*
X2212000Y465565D01*
X2279700Y496987D02*
X2273987Y494131D01*
X2268274Y488418D01*
X2265417Y479848D01*
Y474135D01*
X2268274Y465565D01*
X2273987Y459852D01*
X2279700Y456996D01*
X2288269D01*
X2293982Y459852D01*
X2299695Y465565D01*
X2302552Y474135D01*
Y479848D01*
X2299695Y488418D01*
X2293982Y494131D01*
X2288269Y496987D01*
X2279700D01*
X2315692Y516983D02*
Y456996D01*
X2362539Y516983D02*
Y456996D01*
Y488418D02*
X2356826Y494131D01*
X2351113Y496987D01*
X2342543D01*
X2336830Y494131D01*
X2331117Y488418D01*
X2328261Y479848D01*
Y474135D01*
X2331117Y465565D01*
X2336830Y459852D01*
X2342543Y456996D01*
X2351113D01*
X2356826Y459852D01*
X2362539Y465565D01*
X2378536Y479848D02*
X2412814D01*
Y485561D01*
X2409957Y491274D01*
X2407101Y494131D01*
X2401388Y496987D01*
X2392818D01*
X2387105Y494131D01*
X2381392Y488418D01*
X2378536Y479848D01*
Y474135D01*
X2381392Y465565D01*
X2387105Y459852D01*
X2392818Y456996D01*
X2401388D01*
X2407101Y459852D01*
X2412814Y465565D01*
X2425668Y479848D02*
X2459947D01*
Y485561D01*
X2457090Y491274D01*
X2454234Y494131D01*
X2448521Y496987D01*
X2439951D01*
X2434238Y494131D01*
X2428525Y488418D01*
X2425668Y479848D01*
Y474135D01*
X2428525Y465565D01*
X2434238Y459852D01*
X2439951Y456996D01*
X2448521D01*
X2454234Y459852D01*
X2459947Y465565D01*
X2472801Y496987D02*
Y456996D01*
Y479848D02*
X2475658Y488418D01*
X2481371Y494131D01*
X2487084Y496987D01*
X2495653D01*
X2532503Y488418D02*
X2529646Y494131D01*
X2521077Y496987D01*
X2512507D01*
X2503937Y494131D01*
X2501081Y488418D01*
X2503937Y482704D01*
X2509651Y479848D01*
X2523933Y476991D01*
X2529646Y474135D01*
X2532503Y468422D01*
Y465565D01*
X2529646Y459852D01*
X2521077Y456996D01*
X2512507D01*
X2503937Y459852D01*
X2501081Y465565D01*
X2553641Y516983D02*
Y468422D01*
X2556498Y459852D01*
X2562211Y456996D01*
X2567924D01*
X2545072Y496987D02*
X2565067D01*
X2610772D02*
Y456996D01*
Y488418D02*
X2605059Y494131D01*
X2599345Y496987D01*
X2590776D01*
X2585063Y494131D01*
X2579350Y488418D01*
X2576493Y479848D01*
Y474135D01*
X2579350Y465565D01*
X2585063Y459852D01*
X2590776Y456996D01*
X2599345D01*
X2605059Y459852D01*
X2610772Y465565D01*
X2635338Y516983D02*
Y468422D01*
X2638194Y459852D01*
X2643907Y456996D01*
X2649620D01*
X2626768Y496987D02*
X2646764D01*
X2663903Y516983D02*
X2666760Y514126D01*
X2669616Y516983D01*
X2666760Y519839D01*
X2663903Y516983D01*
X2666760Y496987D02*
Y456996D01*
X2694468Y496987D02*
X2688755Y494131D01*
X2683042Y488418D01*
X2680185Y479848D01*
Y474135D01*
X2683042Y465565D01*
X2688755Y459852D01*
X2694468Y456996D01*
X2703037D01*
X2708751Y459852D01*
X2714464Y465565D01*
X2717320Y474135D01*
Y479848D01*
X2714464Y488418D01*
X2708751Y494131D01*
X2703037Y496987D01*
X2694468D01*
X2730460D02*
Y456996D01*
Y485561D02*
X2739030Y494131D01*
X2744743Y496987D01*
X2753312D01*
X2759026Y494131D01*
X2761882Y485561D01*
Y456996D01*
X2824726Y516983D02*
Y456996D01*
Y516983D02*
X2847578Y456996D01*
X2870430Y516983D02*
X2847578Y456996D01*
X2870430Y516983D02*
Y456996D01*
X2893283Y516983D02*
X2896139Y514126D01*
X2898996Y516983D01*
X2896139Y519839D01*
X2893283Y516983D01*
X2896139Y496987D02*
Y456996D01*
X2943843Y496987D02*
Y451283D01*
X2940987Y442713D01*
X2938130Y439856D01*
X2932417Y437000D01*
X2923847D01*
X2918134Y439856D01*
X2943843Y488418D02*
X2938130Y494131D01*
X2932417Y496987D01*
X2923847D01*
X2918134Y494131D01*
X2912421Y488418D01*
X2909565Y479848D01*
Y474135D01*
X2912421Y465565D01*
X2918134Y459852D01*
X2923847Y456996D01*
X2932417D01*
X2938130Y459852D01*
X2943843Y465565D01*
X2959840Y496987D02*
Y468422D01*
X2962696Y459852D01*
X2968409Y456996D01*
X2976979D01*
X2982692Y459852D01*
X2991262Y468422D01*
Y496987D02*
Y456996D01*
X3006972Y479848D02*
X3041251D01*
Y485561D01*
X3038394Y491274D01*
X3035538Y494131D01*
X3029825Y496987D01*
X3021255D01*
X3015542Y494131D01*
X3009829Y488418D01*
X3006972Y479848D01*
Y474135D01*
X3009829Y465565D01*
X3015542Y459852D01*
X3021255Y456996D01*
X3029825D01*
X3035538Y459852D01*
X3041251Y465565D01*
X3054105Y516983D02*
Y456996D01*
X3113807Y516983D02*
Y456996D01*
Y516983D02*
X3153798Y456996D01*
Y516983D02*
Y456996D01*
X3170366Y496987D02*
Y468422D01*
X3173223Y459852D01*
X3178936Y456996D01*
X3187505D01*
X3193218Y459852D01*
X3201788Y468422D01*
Y496987D02*
Y456996D01*
X3217499Y496987D02*
Y456996D01*
Y485561D02*
X3226068Y494131D01*
X3231782Y496987D01*
X3240351D01*
X3246064Y494131D01*
X3248921Y485561D01*
Y456996D01*
X3264632Y479848D02*
X3298910D01*
Y485561D01*
X3296053Y491274D01*
X3293197Y494131D01*
X3287484Y496987D01*
X3278914D01*
X3273201Y494131D01*
X3267488Y488418D01*
X3264632Y479848D01*
Y474135D01*
X3267488Y465565D01*
X3273201Y459852D01*
X3278914Y456996D01*
X3287484D01*
X3293197Y459852D01*
X3298910Y465565D01*
X3343186Y496987D02*
X3311765Y456996D01*
Y496987D02*
X3343186D01*
X3311765Y456996D02*
X3343186D01*
X3402888Y496987D02*
X3420027Y456996D01*
X3437166Y496987D02*
X3420027Y456996D01*
X3446878Y505557D02*
X3452592Y508413D01*
X3461161Y516983D01*
Y456996D01*
X3493726Y462709D02*
X3490869Y459852D01*
X3493726Y456996D01*
X3496582Y459852D01*
X3493726Y462709D01*
X3526861Y516983D02*
X3518292Y514126D01*
X3512579Y505557D01*
X3509722Y491274D01*
Y482704D01*
X3512579Y468422D01*
X3518292Y459852D01*
X3526861Y456996D01*
X3532574D01*
X3541144Y459852D01*
X3546857Y468422D01*
X3549714Y482704D01*
Y491274D01*
X3546857Y505557D01*
X3541144Y514126D01*
X3532574Y516983D01*
X3526861D01*
D23*
X959448Y1709252D02*
D03*
X1140552Y2240748D02*
D03*
X2651574Y2650000D02*
D03*
D24*
X200000Y3800000D02*
D03*
X3800000D02*
D03*
Y600000D02*
D03*
X200000D02*
D03*
D25*
X2125000Y1850000D02*
D03*
Y1950000D02*
D03*
Y2050000D02*
D03*
Y2150000D02*
D03*
Y2250000D02*
D03*
X2225000D02*
D03*
Y2150000D02*
D03*
Y2050000D02*
D03*
Y1950000D02*
D03*
Y1850000D02*
D03*
X975000Y875000D02*
D03*
Y975000D02*
D03*
Y1075000D02*
D03*
Y1175000D02*
D03*
Y1275000D02*
D03*
X2475000Y725000D02*
D03*
Y825000D02*
D03*
Y925000D02*
D03*
X2375000D02*
D03*
Y825000D02*
D03*
Y725000D02*
D03*
D26*
X775000Y1789370D02*
D03*
X2350000Y2589370D02*
D03*
D27*
X775000Y1710630D02*
D03*
X2350000Y2510630D02*
D03*
X2850000Y1900000D02*
D03*
D28*
X399212Y3100000D02*
D03*
X1000000D02*
D03*
X1198426D02*
D03*
X1396850D02*
D03*
Y2804724D02*
D03*
X1198426D02*
D03*
X1000000D02*
D03*
X399212D02*
D03*
D29*
X3500000Y3100000D02*
D03*
X3400000D02*
D03*
X3300000D02*
D03*
D30*
X700000Y3600000D02*
D03*
X1300000D02*
D03*
D31*
X500000D02*
D03*
X1100000D02*
D03*
X3600000Y1200000D02*
D03*
Y2800000D02*
D03*
X263188Y1575000D02*
D03*
Y1725000D02*
D03*
X687796Y650000D02*
D03*
X550000D02*
D03*
X263188Y2175000D02*
D03*
Y2325000D02*
D03*
Y950000D02*
D03*
Y1100000D02*
D03*
D32*
X1689370Y2700000D02*
D03*
X2075000Y1300000D02*
D03*
D33*
X2150000Y2700000D02*
D03*
D34*
X200000Y3400000D02*
D03*
X2403150D02*
D03*
D35*
X200000Y2844882D02*
D03*
D36*
X2848426Y2650000D02*
D03*
D37*
X2796850Y3400000D02*
D03*
D38*
X1700000Y3795276D02*
D03*
Y3500000D02*
D03*
Y3204724D02*
D03*
X2000000Y3795276D02*
D03*
Y3500000D02*
D03*
Y3204724D02*
D03*
D39*
X1700000Y2909448D02*
D03*
X2000000D02*
D03*
D40*
X3600000Y1000000D02*
D03*
Y2600000D02*
D03*
D41*
X2521260Y1600000D02*
D03*
D42*
Y1500000D02*
D03*
Y1400000D02*
D03*
Y1300000D02*
D03*
X2828740D02*
D03*
Y1400000D02*
D03*
Y1500000D02*
D03*
Y1600000D02*
D03*
D43*
X2928740Y1900000D02*
D03*
D44*
X3597638Y1500000D02*
D03*
X3700000D02*
D03*
X3802362D02*
D03*
Y1825000D02*
D03*
X3700000D02*
D03*
X3597638D02*
D03*
Y2150000D02*
D03*
X3700000D02*
D03*
X3802362D02*
D03*
X598032Y2108070D02*
D03*
Y2210434D02*
D03*
Y2312796D02*
D03*
D45*
X3800000Y3400000D02*
D03*
D46*
Y3300000D02*
D03*
Y3200000D02*
D03*
D47*
X3175000Y2825000D02*
D03*
X3275000D02*
D03*
Y2525000D02*
D03*
X3175000D02*
D03*
D48*
X1857480Y2475000D02*
D03*
Y2375000D02*
D03*
Y2275000D02*
D03*
Y2175000D02*
D03*
Y2075000D02*
D03*
Y1975000D02*
D03*
Y1875000D02*
D03*
Y1775000D02*
D03*
Y1675000D02*
D03*
Y1575000D02*
D03*
Y1475000D02*
D03*
Y1375000D02*
D03*
Y1275000D02*
D03*
Y1175000D02*
D03*
Y1075000D02*
D03*
Y975000D02*
D03*
Y875000D02*
D03*
Y775000D02*
D03*
Y675000D02*
D03*
Y575000D02*
D03*
X1250000D02*
D03*
Y675000D02*
D03*
Y775000D02*
D03*
Y875000D02*
D03*
Y975000D02*
D03*
Y1075000D02*
D03*
Y1175000D02*
D03*
Y1275000D02*
D03*
Y1375000D02*
D03*
Y1475000D02*
D03*
Y1575000D02*
D03*
Y1675000D02*
D03*
Y1775000D02*
D03*
Y1875000D02*
D03*
Y1975000D02*
D03*
Y2075000D02*
D03*
Y2175000D02*
D03*
Y2275000D02*
D03*
Y2375000D02*
D03*
D49*
Y2475000D02*
D03*
D50*
X263188Y1875000D02*
D03*
Y2475000D02*
D03*
Y1250000D02*
D03*
D51*
X2075000Y839370D02*
D03*
D52*
X675000Y1275000D02*
D03*
Y1175000D02*
D03*
Y1075000D02*
D03*
D53*
Y975000D02*
D03*
D54*
X2961000Y1206000D02*
D03*
X3271000Y1844000D02*
D03*
X2944000Y627000D02*
D03*
X3478000Y1129000D02*
D03*
X390000Y1956000D02*
D03*
X3036000Y1749000D02*
D03*
Y1884000D02*
D03*
X3424000Y967000D02*
D03*
X2887000Y1450000D02*
D03*
X1093000Y2425000D02*
D03*
X3200630Y1067000D02*
D03*
X631000Y1691000D02*
D03*
X2721000Y1207000D02*
D03*
X3335000Y2100000D02*
D03*
%TF.MD5,3e91620373198148f3691f8d1305e872*%
M02*
