%TF.GenerationSoftware,Altium Limited,Altium Designer,22.4.2 (48)*%
G04 Layer_Color=128*
%FSLAX26Y26*%
%MOIN*%
%TF.SameCoordinates,A4870EFA-22FD-4628-A34E-0957DAB8BB32*%
%TF.FilePolarity,Positive*%
%TF.FileFunction,Drillmap*%
%TF.Part,Single*%
G01*
G75*
%TA.AperFunction,NonConductor*%
%ADD60C,0.005000*%
D60*
X941731Y1709252D02*
X977164D01*
X959448Y1691535D02*
Y1726968D01*
X1122835Y2240748D02*
X1158268D01*
X1140552Y2223032D02*
Y2258465D01*
X140945Y3800000D02*
X259055D01*
X200000Y3740945D02*
Y3859055D01*
X3740945Y3800000D02*
X3859055D01*
X3800000Y3740945D02*
Y3859055D01*
X3740945Y600000D02*
X3859055D01*
X3800000Y540945D02*
Y659055D01*
X140945Y600000D02*
X259055D01*
X200000Y540945D02*
Y659055D01*
X2107500Y1850000D02*
X2142500D01*
X2125000Y1832500D02*
Y1867500D01*
X2107500Y1950000D02*
X2142500D01*
X2125000Y1932500D02*
Y1967500D01*
X2107500Y2050000D02*
X2142500D01*
X2125000Y2032500D02*
Y2067500D01*
X2107500Y2150000D02*
X2142500D01*
X2125000Y2132500D02*
Y2167500D01*
X2107500Y2250000D02*
X2142500D01*
X2125000Y2232500D02*
Y2267500D01*
X2207500Y2250000D02*
X2242500D01*
X2225000Y2232500D02*
Y2267500D01*
X2207500Y2150000D02*
X2242500D01*
X2225000Y2132500D02*
Y2167500D01*
X2207500Y2050000D02*
X2242500D01*
X2225000Y2032500D02*
Y2067500D01*
X2207500Y1950000D02*
X2242500D01*
X2225000Y1932500D02*
Y1967500D01*
X2207500Y1850000D02*
X2242500D01*
X2225000Y1832500D02*
Y1867500D01*
X759252Y1789370D02*
X790748D01*
X775000Y1773622D02*
Y1805118D01*
X759252Y1710630D02*
X790748D01*
X775000Y1694882D02*
Y1726378D01*
X2334252Y2589370D02*
X2365748D01*
X2350000Y2573622D02*
Y2605118D01*
X2334252Y2510630D02*
X2365748D01*
X2350000Y2494882D02*
Y2526378D01*
X371653Y3100000D02*
X426771D01*
X399212Y3072441D02*
Y3127559D01*
X972441Y3100000D02*
X1027559D01*
X1000000Y3072441D02*
Y3127559D01*
X1170867Y3100000D02*
X1225985D01*
X1198426Y3072441D02*
Y3127559D01*
X1369291Y3100000D02*
X1424409D01*
X1396850Y3072441D02*
Y3127559D01*
X1369291Y2804724D02*
X1424409D01*
X1396850Y2777165D02*
Y2832283D01*
X1170867Y2804724D02*
X1225985D01*
X1198426Y2777165D02*
Y2832283D01*
X972441Y2804724D02*
X1027559D01*
X1000000Y2777165D02*
Y2832283D01*
X371653Y2804724D02*
X426771D01*
X399212Y2777165D02*
Y2832283D01*
X3479331Y3100000D02*
X3520669D01*
X3500000Y3079331D02*
Y3120669D01*
X3379331Y3100000D02*
X3420669D01*
X3400000Y3079331D02*
Y3120669D01*
X3279331Y3100000D02*
X3320669D01*
X3300000Y3079331D02*
Y3120669D01*
X674409Y3600000D02*
X725591D01*
X700000Y3574410D02*
Y3625590D01*
X474409Y3600000D02*
X525591D01*
X500000Y3574410D02*
Y3625590D01*
X1274409Y3600000D02*
X1325591D01*
X1300000Y3574410D02*
Y3625590D01*
X1074409Y3600000D02*
X1125591D01*
X1100000Y3574410D02*
Y3625590D01*
X1674606Y2700000D02*
X1704134D01*
X1689370Y2685236D02*
Y2714764D01*
X2135236Y2700000D02*
X2164764D01*
X2150000Y2685236D02*
Y2714764D01*
X178346Y3400000D02*
X221654D01*
X200000Y3378347D02*
Y3421653D01*
X178346Y2844882D02*
X221654D01*
X200000Y2823229D02*
Y2866535D01*
X2633858Y2650000D02*
X2669291D01*
X2651574Y2632284D02*
Y2667716D01*
X2830709Y2650000D02*
X2866142D01*
X2848426Y2632284D02*
Y2667716D01*
X2775197Y3400000D02*
X2818503D01*
X2796850Y3378347D02*
Y3421653D01*
X2381497Y3400000D02*
X2424803D01*
X2403150Y3378347D02*
Y3421653D01*
X1669291Y3795276D02*
X1730709D01*
X1700000Y3764567D02*
Y3825985D01*
X1669291Y3500000D02*
X1730709D01*
X1700000Y3469291D02*
Y3530709D01*
X1669291Y3204724D02*
X1730709D01*
X1700000Y3174015D02*
Y3235433D01*
X1669291Y2909448D02*
X1730709D01*
X1700000Y2878739D02*
Y2940157D01*
X1969291Y3795276D02*
X2030709D01*
X2000000Y3764567D02*
Y3825985D01*
X1969291Y3500000D02*
X2030709D01*
X2000000Y3469291D02*
Y3530709D01*
X1969291Y3204724D02*
X2030709D01*
X2000000Y3174015D02*
Y3235433D01*
X1969291Y2909448D02*
X2030709D01*
X2000000Y2878739D02*
Y2940157D01*
X3574410Y1200000D02*
X3625590D01*
X3600000Y1174409D02*
Y1225591D01*
X3574410Y1000000D02*
X3625590D01*
X3600000Y974409D02*
Y1025591D01*
X2506319Y1600000D02*
X2536201D01*
X2521260Y1585059D02*
Y1614941D01*
X2506319Y1500000D02*
X2536201D01*
X2521260Y1485059D02*
Y1514941D01*
X2506319Y1400000D02*
X2536201D01*
X2521260Y1385059D02*
Y1414941D01*
X2506319Y1300000D02*
X2536201D01*
X2521260Y1285059D02*
Y1314941D01*
X2813799Y1300000D02*
X2843681D01*
X2828740Y1285059D02*
Y1314941D01*
X2813799Y1400000D02*
X2843681D01*
X2828740Y1385059D02*
Y1414941D01*
X2813799Y1500000D02*
X2843681D01*
X2828740Y1485059D02*
Y1514941D01*
X2813799Y1600000D02*
X2843681D01*
X2828740Y1585059D02*
Y1614941D01*
X2834252Y1900000D02*
X2865748D01*
X2850000Y1884252D02*
Y1915748D01*
X2912992Y1900000D02*
X2944488D01*
X2928740Y1884252D02*
Y1915748D01*
X3578740Y1500000D02*
X3616536D01*
X3597638Y1481102D02*
Y1518898D01*
X3681102Y1500000D02*
X3718898D01*
X3700000Y1481102D02*
Y1518898D01*
X3783464Y1500000D02*
X3821260D01*
X3802362Y1481102D02*
Y1518898D01*
X3774803Y3400000D02*
X3825197D01*
X3800000Y3374803D02*
Y3425197D01*
X3774803Y3300000D02*
X3825197D01*
X3800000Y3274803D02*
Y3325197D01*
X3774803Y3200000D02*
X3825197D01*
X3800000Y3174803D02*
Y3225197D01*
X3783464Y1825000D02*
X3821260D01*
X3802362Y1806102D02*
Y1843898D01*
X3681102Y1825000D02*
X3718898D01*
X3700000Y1806102D02*
Y1843898D01*
X3578740Y1825000D02*
X3616536D01*
X3597638Y1806102D02*
Y1843898D01*
X3578740Y2150000D02*
X3616536D01*
X3597638Y2131102D02*
Y2168898D01*
X3681102Y2150000D02*
X3718898D01*
X3700000Y2131102D02*
Y2168898D01*
X3783464Y2150000D02*
X3821260D01*
X3802362Y2131102D02*
Y2168898D01*
X3150000Y2825000D02*
X3200000D01*
X3175000Y2800000D02*
Y2850000D01*
X3250000Y2825000D02*
X3300000D01*
X3275000Y2800000D02*
Y2850000D01*
X3250000Y2525000D02*
X3300000D01*
X3275000Y2500000D02*
Y2550000D01*
X3150000Y2525000D02*
X3200000D01*
X3175000Y2500000D02*
Y2550000D01*
X3574410Y2800000D02*
X3625590D01*
X3600000Y2774410D02*
Y2825590D01*
X3574410Y2600000D02*
X3625590D01*
X3600000Y2574410D02*
Y2625590D01*
X1842047Y2475000D02*
X1872913D01*
X1857480Y2459567D02*
Y2490433D01*
X1842047Y2375000D02*
X1872913D01*
X1857480Y2359567D02*
Y2390433D01*
X1842047Y2275000D02*
X1872913D01*
X1857480Y2259567D02*
Y2290433D01*
X1842047Y2175000D02*
X1872913D01*
X1857480Y2159567D02*
Y2190433D01*
X1842047Y2075000D02*
X1872913D01*
X1857480Y2059567D02*
Y2090433D01*
X1842047Y1975000D02*
X1872913D01*
X1857480Y1959567D02*
Y1990433D01*
X1842047Y1875000D02*
X1872913D01*
X1857480Y1859567D02*
Y1890433D01*
X1842047Y1775000D02*
X1872913D01*
X1857480Y1759567D02*
Y1790433D01*
X1842047Y1675000D02*
X1872913D01*
X1857480Y1659567D02*
Y1690433D01*
X1842047Y1575000D02*
X1872913D01*
X1857480Y1559567D02*
Y1590433D01*
X1842047Y1475000D02*
X1872913D01*
X1857480Y1459567D02*
Y1490433D01*
X1842047Y1375000D02*
X1872913D01*
X1857480Y1359567D02*
Y1390433D01*
X1842047Y1275000D02*
X1872913D01*
X1857480Y1259567D02*
Y1290433D01*
X1842047Y1175000D02*
X1872913D01*
X1857480Y1159567D02*
Y1190433D01*
X1842047Y1075000D02*
X1872913D01*
X1857480Y1059567D02*
Y1090433D01*
X1842047Y975000D02*
X1872913D01*
X1857480Y959567D02*
Y990433D01*
X1842047Y875000D02*
X1872913D01*
X1857480Y859567D02*
Y890433D01*
X1842047Y775000D02*
X1872913D01*
X1857480Y759567D02*
Y790433D01*
X1842047Y675000D02*
X1872913D01*
X1857480Y659567D02*
Y690433D01*
X1842047Y575000D02*
X1872913D01*
X1857480Y559567D02*
Y590433D01*
X1234567Y575000D02*
X1265433D01*
X1250000Y559567D02*
Y590433D01*
X1234567Y675000D02*
X1265433D01*
X1250000Y659567D02*
Y690433D01*
X1234567Y775000D02*
X1265433D01*
X1250000Y759567D02*
Y790433D01*
X1234567Y875000D02*
X1265433D01*
X1250000Y859567D02*
Y890433D01*
X1234567Y975000D02*
X1265433D01*
X1250000Y959567D02*
Y990433D01*
X1234567Y1075000D02*
X1265433D01*
X1250000Y1059567D02*
Y1090433D01*
X1234567Y1175000D02*
X1265433D01*
X1250000Y1159567D02*
Y1190433D01*
X1234567Y1275000D02*
X1265433D01*
X1250000Y1259567D02*
Y1290433D01*
X1234567Y1375000D02*
X1265433D01*
X1250000Y1359567D02*
Y1390433D01*
X1234567Y1475000D02*
X1265433D01*
X1250000Y1459567D02*
Y1490433D01*
X1234567Y1575000D02*
X1265433D01*
X1250000Y1559567D02*
Y1590433D01*
X1234567Y1675000D02*
X1265433D01*
X1250000Y1659567D02*
Y1690433D01*
X1234567Y1775000D02*
X1265433D01*
X1250000Y1759567D02*
Y1790433D01*
X1234567Y1875000D02*
X1265433D01*
X1250000Y1859567D02*
Y1890433D01*
X1234567Y1975000D02*
X1265433D01*
X1250000Y1959567D02*
Y1990433D01*
X1234567Y2075000D02*
X1265433D01*
X1250000Y2059567D02*
Y2090433D01*
X1234567Y2175000D02*
X1265433D01*
X1250000Y2159567D02*
Y2190433D01*
X1234567Y2275000D02*
X1265433D01*
X1250000Y2259567D02*
Y2290433D01*
X1234567Y2375000D02*
X1265433D01*
X1250000Y2359567D02*
Y2390433D01*
X1234567Y2475000D02*
X1265433D01*
X1250000Y2459567D02*
Y2490433D01*
X237597Y1575000D02*
X288779D01*
X263188Y1549409D02*
Y1600591D01*
X237597Y1875000D02*
X288779D01*
X263188Y1849409D02*
Y1900591D01*
X237597Y1725000D02*
X288779D01*
X263188Y1699409D02*
Y1750591D01*
X662206Y650000D02*
X713386D01*
X687796Y624409D02*
Y675591D01*
X524409Y650000D02*
X575591D01*
X550000Y624409D02*
Y675591D01*
X237597Y2175000D02*
X288779D01*
X263188Y2149410D02*
Y2200590D01*
X237597Y2475000D02*
X288779D01*
X263188Y2449410D02*
Y2500590D01*
X237597Y2325000D02*
X288779D01*
X263188Y2299410D02*
Y2350590D01*
X957500Y875000D02*
X992500D01*
X975000Y857500D02*
Y892500D01*
X957500Y975000D02*
X992500D01*
X975000Y957500D02*
Y992500D01*
X957500Y1075000D02*
X992500D01*
X975000Y1057500D02*
Y1092500D01*
X957500Y1175000D02*
X992500D01*
X975000Y1157500D02*
Y1192500D01*
X957500Y1275000D02*
X992500D01*
X975000Y1257500D02*
Y1292500D01*
X2060236Y839370D02*
X2089764D01*
X2075000Y824606D02*
Y854134D01*
X2060236Y1300000D02*
X2089764D01*
X2075000Y1285236D02*
Y1314764D01*
X2457500Y725000D02*
X2492500D01*
X2475000Y707500D02*
Y742500D01*
X2457500Y825000D02*
X2492500D01*
X2475000Y807500D02*
Y842500D01*
X2457500Y925000D02*
X2492500D01*
X2475000Y907500D02*
Y942500D01*
X2357500Y925000D02*
X2392500D01*
X2375000Y907500D02*
Y942500D01*
X2357500Y825000D02*
X2392500D01*
X2375000Y807500D02*
Y842500D01*
X2357500Y725000D02*
X2392500D01*
X2375000Y707500D02*
Y742500D01*
X655315Y1275000D02*
X694685D01*
X675000Y1255315D02*
Y1294685D01*
X655315Y1175000D02*
X694685D01*
X675000Y1155315D02*
Y1194685D01*
X655315Y1075000D02*
X694685D01*
X675000Y1055315D02*
Y1094685D01*
X655315Y975000D02*
X694685D01*
X675000Y955315D02*
Y994685D01*
X237597Y950000D02*
X288779D01*
X263188Y924409D02*
Y975591D01*
X237597Y1250000D02*
X288779D01*
X263188Y1224409D02*
Y1275591D01*
X237597Y1100000D02*
X288779D01*
X263188Y1074409D02*
Y1125591D01*
X579134Y2108070D02*
X616930D01*
X598032Y2089172D02*
Y2126968D01*
X579134Y2210434D02*
X616930D01*
X598032Y2191536D02*
Y2229332D01*
X579134Y2312796D02*
X616930D01*
X598032Y2293898D02*
Y2331694D01*
X2947000Y1206000D02*
X2975000D01*
X2961000Y1192000D02*
Y1220000D01*
X3257000Y1844000D02*
X3285000D01*
X3271000Y1830000D02*
Y1858000D01*
X2930000Y627000D02*
X2958000D01*
X2944000Y613000D02*
Y641000D01*
X3464000Y1129000D02*
X3492000D01*
X3478000Y1115000D02*
Y1143000D01*
X376000Y1956000D02*
X404000D01*
X390000Y1942000D02*
Y1970000D01*
X3022000Y1749000D02*
X3050000D01*
X3036000Y1735000D02*
Y1763000D01*
X3022000Y1884000D02*
X3050000D01*
X3036000Y1870000D02*
Y1898000D01*
X3410000Y967000D02*
X3438000D01*
X3424000Y953000D02*
Y981000D01*
X2873000Y1450000D02*
X2901000D01*
X2887000Y1436000D02*
Y1464000D01*
X1079000Y2425000D02*
X1107000D01*
X1093000Y2411000D02*
Y2439000D01*
X3186630Y1067000D02*
X3214630D01*
X3200630Y1053000D02*
Y1081000D01*
X617000Y1691000D02*
X645000D01*
X631000Y1677000D02*
Y1705000D01*
X2707000Y1207000D02*
X2735000D01*
X2721000Y1193000D02*
Y1221000D01*
X3321000Y2100000D02*
X3349000D01*
X3335000Y2086000D02*
Y2114000D01*
%TF.MD5,fc530a18f738ea7076b36496fed1355b*%
M02*
