%TF.GenerationSoftware,Altium Limited,Altium Designer,22.4.2 (48)*%
G04 Layer_Color=8388736*
%FSLAX26Y26*%
%MOIN*%
%TF.SameCoordinates,DD4E5991-19CE-4C14-B0C1-6D61C62B9851*%
%TF.FilePolarity,Negative*%
%TF.FileFunction,Soldermask,Top*%
%TF.Part,Single*%
G01*
G75*
%TA.AperFunction,ComponentPad*%
%ADD25C,0.055000*%
%TA.AperFunction,SMDPad,CuDef*%
%ADD63R,0.044417X0.092646*%
%ADD64R,0.043433X0.059181*%
%ADD65R,0.047370X0.065087*%
%ADD66R,0.045402X0.065087*%
G04:AMPARAMS|DCode=67|XSize=45.008mil|YSize=77.685mil|CornerRadius=6.59mil|HoleSize=0mil|Usage=FLASHONLY|Rotation=270.000|XOffset=0mil|YOffset=0mil|HoleType=Round|Shape=RoundedRectangle|*
%AMROUNDEDRECTD67*
21,1,0.045008,0.064504,0,0,270.0*
21,1,0.031827,0.077685,0,0,270.0*
1,1,0.013181,-0.032252,-0.015914*
1,1,0.013181,-0.032252,0.015914*
1,1,0.013181,0.032252,0.015914*
1,1,0.013181,0.032252,-0.015914*
%
%ADD67ROUNDEDRECTD67*%
G04:AMPARAMS|DCode=68|XSize=50.913mil|YSize=77.685mil|CornerRadius=7.004mil|HoleSize=0mil|Usage=FLASHONLY|Rotation=270.000|XOffset=0mil|YOffset=0mil|HoleType=Round|Shape=RoundedRectangle|*
%AMROUNDEDRECTD68*
21,1,0.050913,0.063677,0,0,270.0*
21,1,0.036906,0.077685,0,0,270.0*
1,1,0.014008,-0.031839,-0.018453*
1,1,0.014008,-0.031839,0.018453*
1,1,0.014008,0.031839,0.018453*
1,1,0.014008,0.031839,-0.018453*
%
%ADD68ROUNDEDRECTD68*%
%ADD69R,0.062724X0.040677*%
%ADD70R,0.040677X0.062724*%
%TA.AperFunction,ComponentPad*%
%ADD71C,0.063118*%
%TA.AperFunction,ViaPad*%
%ADD72C,0.208000*%
%TA.AperFunction,ComponentPad*%
G04:AMPARAMS|DCode=73|XSize=59.181mil|YSize=59.181mil|CornerRadius=16.795mil|HoleSize=0mil|Usage=FLASHONLY|Rotation=90.000|XOffset=0mil|YOffset=0mil|HoleType=Round|Shape=RoundedRectangle|*
%AMROUNDEDRECTD73*
21,1,0.059181,0.025591,0,0,90.0*
21,1,0.025591,0.059181,0,0,90.0*
1,1,0.033590,0.012795,0.012795*
1,1,0.033590,0.012795,-0.012795*
1,1,0.033590,-0.012795,-0.012795*
1,1,0.033590,-0.012795,0.012795*
%
%ADD73ROUNDEDRECTD73*%
%ADD74C,0.059181*%
%ADD75C,0.090677*%
%ADD76C,0.070008*%
%ADD77R,0.084772X0.084772*%
%ADD78C,0.084772*%
%ADD79C,0.053276*%
%ADD80R,0.053276X0.053276*%
%ADD81C,0.072961*%
%ADD82R,0.072961X0.072961*%
G04:AMPARAMS|DCode=83|XSize=63.118mil|YSize=63.118mil|CornerRadius=17.779mil|HoleSize=0mil|Usage=FLASHONLY|Rotation=0.000|XOffset=0mil|YOffset=0mil|HoleType=Round|Shape=RoundedRectangle|*
%AMROUNDEDRECTD83*
21,1,0.063118,0.027559,0,0,0.0*
21,1,0.027559,0.063118,0,0,0.0*
1,1,0.035559,0.013780,-0.013780*
1,1,0.035559,-0.013780,-0.013780*
1,1,0.035559,-0.013780,0.013780*
1,1,0.035559,0.013780,0.013780*
%
%ADD83ROUNDEDRECTD83*%
G04:AMPARAMS|DCode=84|XSize=72.961mil|YSize=72.961mil|CornerRadius=20.24mil|HoleSize=0mil|Usage=FLASHONLY|Rotation=0.000|XOffset=0mil|YOffset=0mil|HoleType=Round|Shape=RoundedRectangle|*
%AMROUNDEDRECTD84*
21,1,0.072961,0.032480,0,0,0.0*
21,1,0.032480,0.072961,0,0,0.0*
1,1,0.040480,0.016240,-0.016240*
1,1,0.040480,-0.016240,-0.016240*
1,1,0.040480,-0.016240,0.016240*
1,1,0.040480,0.016240,0.016240*
%
%ADD84ROUNDEDRECTD84*%
%ADD85C,0.100126*%
%ADD86R,0.100126X0.100126*%
%ADD87R,0.084772X0.084772*%
%ADD88R,0.053630X0.053630*%
%ADD89C,0.053630*%
G04:AMPARAMS|DCode=90|XSize=59.181mil|YSize=59.181mil|CornerRadius=16.795mil|HoleSize=0mil|Usage=FLASHONLY|Rotation=0.000|XOffset=0mil|YOffset=0mil|HoleType=Round|Shape=RoundedRectangle|*
%AMROUNDEDRECTD90*
21,1,0.059181,0.025591,0,0,0.0*
21,1,0.025591,0.059181,0,0,0.0*
1,1,0.033590,0.012795,-0.012795*
1,1,0.033590,-0.012795,-0.012795*
1,1,0.033590,-0.012795,0.012795*
1,1,0.033590,0.012795,0.012795*
%
%ADD90ROUNDEDRECTD90*%
%ADD91C,0.066779*%
%ADD92R,0.083591X0.083591*%
%ADD93C,0.083591*%
%ADD94C,0.083000*%
%ADD95C,0.054614*%
%ADD96R,0.054614X0.054614*%
G04:AMPARAMS|DCode=97|XSize=84.772mil|YSize=84.772mil|CornerRadius=23.193mil|HoleSize=0mil|Usage=FLASHONLY|Rotation=270.000|XOffset=0mil|YOffset=0mil|HoleType=Round|Shape=RoundedRectangle|*
%AMROUNDEDRECTD97*
21,1,0.084772,0.038386,0,0,270.0*
21,1,0.038386,0.084772,0,0,270.0*
1,1,0.046386,-0.019193,-0.019193*
1,1,0.046386,-0.019193,0.019193*
1,1,0.046386,0.019193,0.019193*
1,1,0.046386,0.019193,-0.019193*
%
%ADD97ROUNDEDRECTD97*%
%ADD98R,0.053276X0.053276*%
%ADD99C,0.067055*%
%ADD100R,0.067055X0.067055*%
%TA.AperFunction,ViaPad*%
%ADD101C,0.058000*%
D25*
X2125000Y1850000D02*
D03*
Y1950000D02*
D03*
Y2050000D02*
D03*
Y2150000D02*
D03*
Y2250000D02*
D03*
X2225000D02*
D03*
Y2150000D02*
D03*
Y2050000D02*
D03*
Y1950000D02*
D03*
Y1850000D02*
D03*
X975000Y875000D02*
D03*
Y975000D02*
D03*
Y1075000D02*
D03*
Y1175000D02*
D03*
Y1275000D02*
D03*
X2475000Y725000D02*
D03*
Y825000D02*
D03*
Y925000D02*
D03*
X2375000D02*
D03*
Y825000D02*
D03*
Y725000D02*
D03*
D63*
X3319000Y627000D02*
D03*
X3259000D02*
D03*
X3515000D02*
D03*
X3455000D02*
D03*
X3345000Y1775000D02*
D03*
X3405000D02*
D03*
D64*
X3275496Y1355000D02*
D03*
X3200692D02*
D03*
X3275496Y1583000D02*
D03*
X3200692D02*
D03*
X862402Y2075000D02*
D03*
X787598D02*
D03*
X2537598Y1875000D02*
D03*
X2612402D02*
D03*
X2537598Y2175000D02*
D03*
X2612402D02*
D03*
X2837598D02*
D03*
X2912402D02*
D03*
X787598Y2275000D02*
D03*
X862402D02*
D03*
X512598Y1600000D02*
D03*
X587402D02*
D03*
X2112402Y625000D02*
D03*
X2037598D02*
D03*
D65*
X1587402Y2700000D02*
D03*
X1512598D02*
D03*
X2412598Y2775000D02*
D03*
X2487402D02*
D03*
X2976582Y1583000D02*
D03*
X3051386D02*
D03*
X2843402Y987000D02*
D03*
X2768598D02*
D03*
X2762598Y613220D02*
D03*
X2837402D02*
D03*
X987598Y2525000D02*
D03*
X1062402D02*
D03*
X562598D02*
D03*
X637402D02*
D03*
D66*
X3264370Y1925000D02*
D03*
X3185630D02*
D03*
X2973630Y1357000D02*
D03*
X3052370D02*
D03*
X3200630Y1126000D02*
D03*
X3279370D02*
D03*
X3200630Y903000D02*
D03*
X3279370D02*
D03*
D67*
X3030640Y603182D02*
D03*
Y1026370D02*
D03*
D68*
Y721490D02*
D03*
Y1144678D02*
D03*
D69*
X3400000Y1432284D02*
D03*
Y1500000D02*
D03*
D70*
X3258858Y2150000D02*
D03*
X3191142D02*
D03*
X583858Y1800000D02*
D03*
X516142D02*
D03*
X2216142Y1475000D02*
D03*
X2283858D02*
D03*
Y1275000D02*
D03*
X2216142D02*
D03*
X833858Y2525000D02*
D03*
X766142D02*
D03*
D71*
X959448Y1709252D02*
D03*
X1140552Y2240748D02*
D03*
X2651574Y2650000D02*
D03*
D72*
X200000Y3800000D02*
D03*
X3800000D02*
D03*
Y600000D02*
D03*
X200000D02*
D03*
D73*
X775000Y1789370D02*
D03*
X2350000Y2589370D02*
D03*
D74*
X775000Y1710630D02*
D03*
X2350000Y2510630D02*
D03*
X2850000Y1900000D02*
D03*
D75*
X399212Y3100000D02*
D03*
X1000000D02*
D03*
X1198426D02*
D03*
X1396850D02*
D03*
Y2804724D02*
D03*
X1198426D02*
D03*
X1000000D02*
D03*
X399212D02*
D03*
D76*
X3500000Y3100000D02*
D03*
X3400000D02*
D03*
X3300000D02*
D03*
D77*
X700000Y3600000D02*
D03*
X1300000D02*
D03*
D78*
X500000D02*
D03*
X1100000D02*
D03*
X3600000Y1200000D02*
D03*
Y2800000D02*
D03*
X263188Y1575000D02*
D03*
Y1725000D02*
D03*
X687796Y650000D02*
D03*
X550000D02*
D03*
X263188Y2175000D02*
D03*
Y2325000D02*
D03*
Y950000D02*
D03*
Y1100000D02*
D03*
D79*
X1689370Y2700000D02*
D03*
X2075000Y1300000D02*
D03*
D80*
X2150000Y2700000D02*
D03*
D81*
X200000Y3400000D02*
D03*
X2403150D02*
D03*
D82*
X200000Y2844882D02*
D03*
D83*
X2848426Y2650000D02*
D03*
D84*
X2796850Y3400000D02*
D03*
D85*
X1700000Y3795276D02*
D03*
Y3500000D02*
D03*
Y3204724D02*
D03*
X2000000Y3795276D02*
D03*
Y3500000D02*
D03*
Y3204724D02*
D03*
D86*
X1700000Y2909448D02*
D03*
X2000000D02*
D03*
D87*
X3600000Y1000000D02*
D03*
Y2600000D02*
D03*
D88*
X2521260Y1600000D02*
D03*
D89*
Y1500000D02*
D03*
Y1400000D02*
D03*
Y1300000D02*
D03*
X2828740D02*
D03*
Y1400000D02*
D03*
Y1500000D02*
D03*
Y1600000D02*
D03*
D90*
X2928740Y1900000D02*
D03*
D91*
X3597638Y1500000D02*
D03*
X3700000D02*
D03*
X3802362D02*
D03*
Y1825000D02*
D03*
X3700000D02*
D03*
X3597638D02*
D03*
Y2150000D02*
D03*
X3700000D02*
D03*
X3802362D02*
D03*
X598032Y2108070D02*
D03*
Y2210434D02*
D03*
Y2312796D02*
D03*
D92*
X3800000Y3400000D02*
D03*
D93*
Y3300000D02*
D03*
Y3200000D02*
D03*
D94*
X3175000Y2825000D02*
D03*
X3275000D02*
D03*
Y2525000D02*
D03*
X3175000D02*
D03*
D95*
X1857480Y2475000D02*
D03*
Y2375000D02*
D03*
Y2275000D02*
D03*
Y2175000D02*
D03*
Y2075000D02*
D03*
Y1975000D02*
D03*
Y1875000D02*
D03*
Y1775000D02*
D03*
Y1675000D02*
D03*
Y1575000D02*
D03*
Y1475000D02*
D03*
Y1375000D02*
D03*
Y1275000D02*
D03*
Y1175000D02*
D03*
Y1075000D02*
D03*
Y975000D02*
D03*
Y875000D02*
D03*
Y775000D02*
D03*
Y675000D02*
D03*
Y575000D02*
D03*
X1250000D02*
D03*
Y675000D02*
D03*
Y775000D02*
D03*
Y875000D02*
D03*
Y975000D02*
D03*
Y1075000D02*
D03*
Y1175000D02*
D03*
Y1275000D02*
D03*
Y1375000D02*
D03*
Y1475000D02*
D03*
Y1575000D02*
D03*
Y1675000D02*
D03*
Y1775000D02*
D03*
Y1875000D02*
D03*
Y1975000D02*
D03*
Y2075000D02*
D03*
Y2175000D02*
D03*
Y2275000D02*
D03*
Y2375000D02*
D03*
D96*
Y2475000D02*
D03*
D97*
X263188Y1875000D02*
D03*
Y2475000D02*
D03*
Y1250000D02*
D03*
D98*
X2075000Y839370D02*
D03*
D99*
X675000Y1275000D02*
D03*
Y1175000D02*
D03*
Y1075000D02*
D03*
D100*
Y975000D02*
D03*
D101*
X2961000Y1206000D02*
D03*
X3271000Y1844000D02*
D03*
X2944000Y627000D02*
D03*
X3478000Y1129000D02*
D03*
X390000Y1956000D02*
D03*
X3036000Y1749000D02*
D03*
Y1884000D02*
D03*
X3424000Y967000D02*
D03*
X2887000Y1450000D02*
D03*
X1093000Y2425000D02*
D03*
X3200630Y1067000D02*
D03*
X631000Y1691000D02*
D03*
X2721000Y1207000D02*
D03*
X3335000Y2100000D02*
D03*
%TF.MD5,554e7128cbb3f621b24e57ec7d66e248*%
M02*
